{"glyphs":{"0":{"ha":908,"x_min":76,"x_max":832,"o":"m 454 -19 l 454 -19 q 251 44 336 -19 q 122 225 167 107 q 76 510 76 343 l 76 510 q 122 794 76 676 q 251 976 167 913 q 454 1039 336 1039 l 454 1039 q 658 976 574 1039 q 787 794 742 913 q 832 510 832 676 l 832 510 q 787 225 832 343 q 658 44 742 107 q 454 -19 574 -19 z m 454 94 l 454 94 q 644 199 576 94 q 711 510 711 304 l 711 510 q 644 820 711 715 q 454 925 576 925 l 454 925 q 265 820 332 925 q 197 510 197 715 l 197 510 q 265 199 197 304 q 454 94 332 94 z "},"1":{"ha":558,"x_min":54,"x_max":411,"o":"m 397 0 l 310 0 q 296 15 296 0 l 296 15 l 296 853 l 99 743 q 79 750 86 738 l 79 750 l 61 781 q 65 800 54 792 l 65 800 l 318 1013 q 336 1019 325 1019 l 336 1019 l 397 1019 q 411 1006 411 1019 l 411 1006 l 411 15 q 397 0 411 0 l 397 0 z "},"2":{"ha":842,"x_min":68,"x_max":757,"o":"m 743 0 l 99 0 q 83 15 83 0 l 83 15 l 83 40 q 90 58 83 49 l 90 58 l 338 332 q 472 486 421 422 q 551 597 524 550 q 588 681 578 643 q 597 758 597 719 l 597 758 q 544 881 597 836 q 404 925 490 925 l 404 925 q 183 763 239 925 l 183 763 q 165 753 179 749 l 165 753 l 83 775 q 72 793 68 778 l 72 793 q 197 974 110 910 q 408 1039 285 1039 l 408 1039 q 569 1005 500 1039 q 678 910 639 971 q 717 768 717 850 l 717 768 q 706 672 717 719 q 665 567 696 624 q 576 438 635 511 q 421 263 517 364 l 421 263 l 276 110 l 743 110 q 757 96 757 110 l 757 96 l 757 15 q 743 0 757 0 l 743 0 z "},"3":{"ha":838,"x_min":60,"x_max":761,"o":"m 414 -19 l 414 -19 q 192 52 288 -19 q 64 256 96 124 l 64 256 q 74 272 60 269 l 74 272 l 154 294 q 172 285 168 297 l 172 285 q 263 143 200 192 q 414 94 325 94 l 414 94 q 533 121 482 94 q 613 192 583 147 q 642 294 642 238 l 642 294 q 580 432 642 381 q 415 483 518 483 l 415 483 l 360 483 q 346 499 346 483 l 346 499 l 346 571 q 360 585 346 585 l 360 585 l 418 585 q 563 633 507 585 q 618 753 618 682 l 618 753 q 560 876 618 828 q 411 925 501 925 l 411 925 q 269 881 326 925 q 188 763 211 836 l 188 763 q 169 753 183 749 l 169 753 l 88 775 q 78 793 74 779 l 78 793 q 199 972 110 904 q 413 1039 289 1039 l 413 1039 q 581 1004 507 1039 q 697 909 654 969 q 739 771 739 849 l 739 771 q 693 629 739 692 q 564 536 647 567 l 564 536 q 709 444 657 510 q 761 282 761 378 l 761 282 q 717 128 761 197 q 595 20 674 60 q 414 -19 517 -19 z "},"4":{"ha":911,"x_min":53,"x_max":853,"o":"m 682 0 l 596 0 q 581 15 581 0 l 581 15 l 581 224 l 68 224 q 53 239 53 224 l 53 239 l 53 267 q 58 285 53 278 l 58 285 l 603 1011 q 621 1019 610 1019 l 621 1019 l 682 1019 q 697 1006 697 1019 l 697 1006 l 697 333 l 838 333 q 853 319 853 333 l 853 319 l 853 239 q 838 224 853 224 l 838 224 l 697 224 l 697 15 q 682 0 697 0 l 682 0 z m 581 821 l 219 333 l 581 333 l 581 821 z "},"5":{"ha":833,"x_min":71,"x_max":771,"o":"m 429 -19 l 429 -19 q 206 53 303 -19 q 75 257 108 125 l 75 257 q 85 275 71 271 l 85 275 l 163 294 q 181 285 176 299 l 181 285 q 275 141 210 188 q 425 94 340 94 l 425 94 q 588 156 525 94 q 651 324 651 218 l 651 324 q 590 492 651 431 q 425 554 529 554 l 425 554 q 185 449 290 554 l 185 449 q 164 446 175 440 l 164 446 l 121 465 q 111 483 110 472 l 111 483 l 158 1006 q 174 1019 160 1019 l 174 1019 l 707 1019 q 721 1006 721 1019 l 721 1006 l 721 925 q 707 910 721 910 l 707 910 l 250 910 l 217 571 q 453 657 313 657 l 453 657 q 620 615 549 657 q 731 499 692 574 q 771 322 771 424 l 771 322 q 727 144 771 221 q 607 24 683 67 q 429 -19 531 -19 z "},"6":{"ha":818,"x_min":63,"x_max":761,"o":"m 411 -19 l 411 -19 q 228 24 307 -19 q 106 147 150 68 q 63 326 63 225 l 63 326 q 78 447 63 389 q 132 574 94 506 q 233 733 169 642 l 233 733 l 431 1011 q 449 1019 438 1019 l 449 1019 l 550 1019 q 561 1014 558 1019 q 558 1001 564 1008 l 558 1001 l 283 618 q 438 658 350 658 l 438 658 q 606 616 533 658 q 720 498 679 574 q 761 322 761 422 l 761 322 q 717 144 761 221 q 595 24 674 67 q 411 -19 517 -19 z m 411 94 l 411 94 q 576 157 514 94 q 639 325 639 219 l 639 325 q 576 492 639 431 q 411 554 514 554 l 411 554 q 244 492 307 554 q 182 325 182 431 l 182 325 q 244 157 182 219 q 411 94 307 94 z "},"7":{"ha":806,"x_min":56,"x_max":743,"o":"m 311 0 l 213 0 q 201 17 194 0 l 201 17 l 593 910 l 71 910 q 56 925 56 910 l 56 925 l 56 1006 q 71 1019 56 1019 l 71 1019 l 728 1019 q 743 1006 743 1019 l 743 1006 l 743 978 q 739 960 743 968 l 739 960 l 329 11 q 311 0 322 0 l 311 0 z "},"8":{"ha":869,"x_min":69,"x_max":800,"o":"m 435 -19 l 435 -19 q 247 18 329 -19 q 117 123 164 56 q 69 279 69 190 l 69 279 q 126 440 69 371 q 276 539 182 510 l 276 539 q 148 630 196 567 q 100 771 100 693 l 100 771 q 143 910 100 850 q 262 1005 186 971 q 435 1039 338 1039 l 435 1039 q 608 1005 533 1039 q 726 910 683 971 q 769 771 769 850 l 769 771 q 722 630 769 693 q 593 539 674 567 l 593 539 q 744 440 688 510 q 800 279 800 371 l 800 279 q 753 124 800 192 q 624 19 706 57 q 435 -19 542 -19 z m 435 581 l 435 581 q 590 631 529 581 q 650 758 650 681 l 650 758 q 590 883 650 833 q 435 933 529 933 l 435 933 q 280 883 340 933 q 219 758 219 833 l 219 758 q 280 631 219 681 q 435 581 340 581 z m 435 88 l 435 88 q 562 114 507 88 q 649 186 617 140 q 681 290 681 232 l 681 290 q 649 393 681 349 q 562 463 617 438 q 435 489 507 489 l 435 489 q 308 463 364 489 q 221 393 253 438 q 189 290 189 349 l 189 290 q 221 186 189 232 q 308 114 253 140 q 435 88 364 88 z "},"9":{"ha":817,"x_min":57,"x_max":756,"o":"m 354 0 l 254 0 q 243 6 246 0 q 246 18 240 11 l 246 18 l 529 400 q 381 363 464 363 l 381 363 q 212 405 285 363 q 98 523 139 447 q 57 699 57 599 l 57 699 q 101 878 57 801 q 223 997 144 954 q 406 1039 301 1039 l 406 1039 q 590 995 511 1039 q 712 874 668 951 q 756 693 756 796 l 756 693 q 740 573 756 632 q 685 446 724 514 q 579 288 646 378 l 579 288 l 372 10 q 354 0 365 0 l 354 0 z m 407 465 l 407 465 q 572 528 510 465 q 635 696 635 590 l 635 696 q 572 863 635 801 q 407 925 510 925 l 407 925 q 240 863 303 925 q 178 696 178 801 l 178 696 q 240 528 178 590 q 407 465 303 465 z "},"\u0000":{"ha":0,"x_min":null,"x_max":null,"o":""},"\r":{"ha":310,"x_min":null,"x_max":null,"o":""}," ":{"ha":310,"x_min":null,"x_max":null,"o":""},".":{"ha":322,"x_min":81,"x_max":242,"o":"m 161 -14 l 161 -14 q 103 8 126 -14 q 81 65 81 31 l 81 65 q 103 122 81 100 q 161 144 126 144 l 161 144 q 219 122 196 144 q 242 65 242 100 l 242 65 q 219 8 242 31 q 161 -14 196 -14 z "},":":{"ha":322,"x_min":81,"x_max":242,"o":"m 161 550 l 161 550 q 103 572 126 550 q 81 629 81 594 l 81 629 q 103 686 81 664 q 161 708 126 708 l 161 708 q 219 686 196 708 q 242 629 242 664 l 242 629 q 219 572 242 594 q 161 550 196 550 z m 161 -14 l 161 -14 q 103 8 126 -14 q 81 65 81 31 l 81 65 q 103 122 81 100 q 161 144 126 144 l 161 144 q 219 122 196 144 q 242 65 242 100 l 242 65 q 219 8 242 31 q 161 -14 196 -14 z "},",":{"ha":322,"x_min":61,"x_max":242,"o":"m 126 -211 l 76 -211 q 65 -196 61 -211 l 65 -196 l 126 -7 q 81 65 81 13 l 81 65 q 104 122 81 100 q 161 144 128 144 l 161 144 q 219 122 196 144 q 242 65 242 100 l 242 65 q 233 14 242 42 q 203 -62 225 -14 l 203 -62 l 142 -201 q 126 -211 138 -211 l 126 -211 z "},";":{"ha":322,"x_min":61,"x_max":242,"o":"m 126 -211 l 76 -211 q 65 -196 61 -211 l 65 -196 l 126 -7 q 81 65 81 13 l 81 65 q 104 122 81 100 q 161 144 128 144 l 161 144 q 219 122 196 144 q 242 65 242 100 l 242 65 q 233 14 242 42 q 203 -62 225 -14 l 203 -62 l 142 -201 q 126 -211 138 -211 l 126 -211 z m 161 550 l 161 550 q 103 572 126 550 q 81 629 81 594 l 81 629 q 103 686 81 664 q 161 708 126 708 l 161 708 q 219 686 196 708 q 242 629 242 664 l 242 629 q 219 572 242 594 q 161 550 196 550 z "},"?":{"ha":747,"x_min":42,"x_max":686,"o":"m 365 225 l 289 225 q 275 240 275 225 l 275 240 l 271 524 q 286 539 271 539 l 286 539 l 342 539 q 509 597 453 539 q 565 746 565 656 l 565 746 q 514 874 565 824 q 372 925 463 925 l 372 925 q 157 767 217 925 l 157 767 q 138 757 150 753 l 138 757 l 56 779 q 46 797 42 783 l 46 797 q 171 976 85 913 q 379 1039 257 1039 l 379 1039 q 540 1003 471 1039 q 647 903 608 967 q 686 756 686 839 l 686 756 q 650 601 686 671 q 546 489 614 532 q 382 440 478 446 l 382 440 l 379 240 q 365 225 379 225 l 365 225 z m 326 -14 l 326 -14 q 270 8 293 -14 q 247 64 247 29 l 247 64 q 270 119 247 99 q 326 140 293 140 l 326 140 q 384 119 361 140 q 407 64 407 99 l 407 64 q 384 8 407 29 q 326 -14 361 -14 z "},"!":{"ha":315,"x_min":78,"x_max":239,"o":"m 190 288 l 124 288 q 108 303 108 288 l 108 303 l 100 1004 q 114 1019 100 1019 l 114 1019 l 199 1019 q 214 1004 214 1019 l 214 1004 l 204 303 q 190 288 204 288 l 190 288 z m 158 -14 l 158 -14 q 101 8 124 -14 q 78 65 78 31 l 78 65 q 101 122 78 100 q 158 144 124 144 l 158 144 q 216 122 193 144 q 239 65 239 100 l 239 65 q 216 8 239 31 q 158 -14 193 -14 z "},"'":{"ha":322,"x_min":107,"x_max":215,"o":"m 189 701 l 133 701 q 119 714 119 701 l 119 714 l 107 1007 q 119 1019 107 1019 l 119 1019 l 203 1019 q 215 1007 215 1019 l 215 1007 l 203 714 q 189 701 203 701 l 189 701 z "},"\"":{"ha":540,"x_min":107,"x_max":433,"o":"m 189 701 l 133 701 q 119 714 119 701 l 119 714 l 107 1007 q 119 1019 107 1019 l 119 1019 l 203 1019 q 215 1007 215 1019 l 215 1007 l 203 714 q 189 701 203 701 l 189 701 z m 407 701 l 351 701 q 338 714 338 701 l 338 714 l 325 1007 q 338 1019 325 1019 l 338 1019 l 421 1019 q 433 1007 433 1019 l 433 1007 l 421 714 q 407 701 421 701 l 407 701 z "},"‘":{"ha":322,"x_min":75,"x_max":240,"o":"m 151 686 l 151 686 q 96 706 117 686 q 75 758 75 726 l 75 758 q 83 807 75 779 q 114 886 92 835 l 114 886 l 168 1010 q 183 1019 172 1019 l 183 1019 l 225 1019 q 236 1004 240 1019 l 236 1004 l 178 828 q 228 760 228 813 l 228 760 q 206 707 228 728 q 151 686 185 686 z "},"’":{"ha":322,"x_min":81,"x_max":249,"o":"m 139 701 l 97 701 q 86 717 81 701 l 86 717 l 144 893 q 96 963 96 908 l 96 963 q 117 1015 96 994 q 172 1035 138 1035 l 172 1035 q 227 1015 206 1035 q 249 963 249 994 l 249 963 q 240 916 249 943 q 208 836 232 889 l 208 836 l 156 713 q 139 701 150 701 l 139 701 z "},"“":{"ha":540,"x_min":75,"x_max":458,"o":"m 151 686 l 151 686 q 96 706 117 686 q 75 758 75 726 l 75 758 q 83 807 75 779 q 114 886 92 835 l 114 886 l 168 1010 q 183 1019 172 1019 l 183 1019 l 225 1019 q 236 1004 240 1019 l 236 1004 l 178 828 q 228 760 228 813 l 228 760 q 206 707 228 728 q 151 686 185 686 z m 369 686 l 369 686 q 314 706 335 686 q 293 758 293 726 l 293 758 q 301 807 293 779 q 332 886 310 835 l 332 886 l 386 1010 q 401 1019 390 1019 l 401 1019 l 443 1019 q 454 1004 458 1019 l 454 1004 l 396 828 q 446 760 446 813 l 446 760 q 424 707 446 728 q 369 686 403 686 z "},"”":{"ha":539,"x_min":81,"x_max":465,"o":"m 139 701 l 97 701 q 86 717 81 701 l 86 717 l 144 893 q 96 963 96 908 l 96 963 q 117 1015 96 994 q 172 1035 138 1035 l 172 1035 q 227 1015 206 1035 q 249 963 249 994 l 249 963 q 240 916 249 943 q 208 836 232 889 l 208 836 l 156 713 q 139 701 150 701 l 139 701 z m 356 701 l 314 701 q 303 717 297 701 l 303 717 l 361 893 q 313 963 313 908 l 313 963 q 333 1015 313 994 q 389 1035 354 1035 l 389 1035 q 444 1015 422 1035 q 465 963 465 994 l 465 963 q 457 916 465 943 q 425 836 449 889 l 425 836 l 372 713 q 356 701 367 701 l 356 701 z "},"…":{"ha":1389,"x_min":139,"x_max":1251,"o":"m 219 -14 l 219 -14 q 162 8 185 -14 q 139 65 139 31 l 139 65 q 162 122 139 100 q 219 144 185 144 l 219 144 q 277 122 254 144 q 300 65 300 100 l 300 65 q 277 8 300 31 q 219 -14 254 -14 z m 694 -14 l 694 -14 q 637 8 660 -14 q 614 65 614 31 l 614 65 q 637 122 614 100 q 694 144 660 144 l 694 144 q 752 122 729 144 q 775 65 775 100 l 775 65 q 752 8 775 31 q 694 -14 729 -14 z m 1171 -14 l 1171 -14 q 1113 8 1136 -14 q 1090 65 1090 31 l 1090 65 q 1113 122 1090 100 q 1171 144 1136 144 l 1171 144 q 1228 122 1206 144 q 1251 65 1251 100 l 1251 65 q 1228 8 1251 31 q 1171 -14 1206 -14 z "}," ":{"ha":310,"x_min":null,"x_max":null,"o":""}," ":{"ha":694,"x_min":null,"x_max":null,"o":""}," ":{"ha":1389,"x_min":null,"x_max":null,"o":""}," ":{"ha":694,"x_min":null,"x_max":null,"o":""}," ":{"ha":1389,"x_min":null,"x_max":null,"o":""}," ":{"ha":463,"x_min":null,"x_max":null,"o":""}," ":{"ha":347,"x_min":null,"x_max":null,"o":""}," ":{"ha":232,"x_min":null,"x_max":null,"o":""}," ":{"ha":833,"x_min":null,"x_max":null,"o":""}," ":{"ha":322,"x_min":null,"x_max":null,"o":""}," ":{"ha":278,"x_min":null,"x_max":null,"o":""}," ":{"ha":231,"x_min":null,"x_max":null,"o":""},"​":{"ha":0,"x_min":null,"x_max":null,"o":""},"﻿":{"ha":0,"x_min":null,"x_max":null,"o":""},"⁄":{"ha":153,"x_min":-300,"x_max":454,"o":"m -204 0 l -286 0 q -297 6 -294 0 q -296 18 -300 11 l -296 18 l 340 1010 q 358 1019 349 1019 l 358 1019 l 439 1019 q 451 1014 447 1019 q 449 1001 454 1008 l 449 1001 l -187 10 q -204 0 -193 0 l -204 0 z "},"%":{"ha":1258,"x_min":43,"x_max":1215,"o":"m 353 0 l 271 0 q 260 6 263 0 q 261 18 257 11 l 261 18 l 897 1010 q 915 1019 906 1019 l 915 1019 l 996 1019 q 1008 1014 1004 1019 q 1006 1001 1011 1008 l 1006 1001 l 369 10 q 353 0 364 0 l 353 0 z m 982 -14 l 982 -14 q 811 64 874 -14 q 749 279 749 142 l 749 279 q 811 494 749 417 q 982 572 874 572 l 982 572 q 1153 494 1090 572 q 1215 279 1215 417 l 1215 279 q 1153 64 1215 142 q 982 -14 1090 -14 z m 982 69 l 982 69 q 1083 123 1047 69 q 1118 279 1118 176 l 1118 279 q 1083 435 1118 382 q 982 489 1047 489 l 982 489 q 883 435 918 489 q 847 279 847 382 l 847 279 q 883 123 847 176 q 982 69 918 69 z m 276 447 l 276 447 q 106 525 168 447 q 43 740 43 603 l 43 740 q 106 956 43 878 q 276 1033 168 1033 l 276 1033 q 447 956 385 1033 q 510 740 510 878 l 510 740 q 447 525 510 603 q 276 447 385 447 z m 276 531 l 276 531 q 377 584 342 531 q 413 740 413 638 l 413 740 q 377 897 413 843 q 276 950 342 950 l 276 950 q 177 897 213 950 q 142 740 142 843 l 142 740 q 177 584 142 638 q 276 531 213 531 z "},"‰":{"ha":1808,"x_min":43,"x_max":1765,"o":"m 353 0 l 271 0 q 260 6 263 0 q 261 18 257 11 l 261 18 l 897 1010 q 915 1019 906 1019 l 915 1019 l 996 1019 q 1008 1014 1004 1019 q 1006 1001 1011 1008 l 1006 1001 l 369 10 q 353 0 364 0 l 353 0 z m 982 -14 l 982 -14 q 811 64 874 -14 q 749 279 749 142 l 749 279 q 811 494 749 417 q 982 572 874 572 l 982 572 q 1153 494 1090 572 q 1215 279 1215 417 l 1215 279 q 1153 64 1215 142 q 982 -14 1090 -14 z m 982 69 l 982 69 q 1083 123 1047 69 q 1118 279 1118 176 l 1118 279 q 1083 435 1118 382 q 982 489 1047 489 l 982 489 q 883 435 918 489 q 847 279 847 382 l 847 279 q 883 123 847 176 q 982 69 918 69 z m 1532 -14 l 1532 -14 q 1361 64 1424 -14 q 1299 279 1299 142 l 1299 279 q 1361 494 1299 417 q 1532 572 1424 572 l 1532 572 q 1703 494 1640 572 q 1765 279 1765 417 l 1765 279 q 1703 64 1765 142 q 1532 -14 1640 -14 z m 1532 69 l 1532 69 q 1633 123 1597 69 q 1668 279 1668 176 l 1668 279 q 1633 435 1668 382 q 1532 489 1597 489 l 1532 489 q 1433 435 1468 489 q 1397 279 1397 382 l 1397 279 q 1433 123 1397 176 q 1532 69 1468 69 z m 276 447 l 276 447 q 106 525 168 447 q 43 740 43 603 l 43 740 q 106 956 43 878 q 276 1033 168 1033 l 276 1033 q 447 956 385 1033 q 510 740 510 878 l 510 740 q 447 525 510 603 q 276 447 385 447 z m 276 531 l 276 531 q 377 584 342 531 q 413 740 413 638 l 413 740 q 377 897 413 843 q 276 950 342 950 l 276 950 q 177 897 213 950 q 142 740 142 843 l 142 740 q 177 584 142 638 q 276 531 213 531 z "},"½":{"ha":1258,"x_min":122,"x_max":1183,"o":"m 331 0 l 249 0 q 238 6 240 0 q 239 18 235 11 l 239 18 l 875 1010 q 893 1019 883 1019 l 893 1019 l 974 1019 q 985 1014 982 1019 q 983 1001 989 1008 l 983 1001 l 347 10 q 331 0 342 0 l 331 0 z m 1171 0 l 792 0 q 779 14 779 0 l 779 14 l 779 29 q 785 44 779 39 l 785 44 l 936 197 q 1020 292 992 254 q 1058 357 1049 329 q 1068 410 1068 385 l 1068 410 q 1042 467 1068 446 q 976 489 1017 489 l 976 489 q 863 411 893 489 l 863 411 q 846 403 857 399 l 846 403 l 788 415 q 779 432 775 419 l 779 432 q 855 535 801 497 q 981 572 908 572 l 981 572 q 1113 530 1060 572 q 1165 415 1165 488 l 1165 415 q 1129 297 1165 356 q 1008 157 1093 239 l 1008 157 l 931 81 l 1171 81 q 1183 68 1183 81 l 1183 68 l 1183 14 q 1171 0 1183 0 l 1171 0 z m 350 461 l 283 461 q 269 475 269 461 l 269 475 l 269 904 l 156 854 q 138 861 143 850 l 138 861 l 128 882 q 132 900 122 893 l 132 900 l 292 1015 q 307 1019 297 1019 l 307 1019 l 350 1019 q 364 1007 364 1019 l 364 1007 l 364 475 q 350 461 364 461 l 350 461 z "},"¼":{"ha":1258,"x_min":122,"x_max":1210,"o":"m 376 0 l 294 0 q 283 6 286 0 q 285 18 281 11 l 285 18 l 921 1010 q 939 1019 929 1019 l 939 1019 l 1019 1019 q 1031 1014 1028 1019 q 1029 1001 1035 1008 l 1029 1001 l 393 10 q 376 0 388 0 l 376 0 z m 1115 0 l 1049 0 q 1035 14 1035 0 l 1035 14 l 1035 115 l 760 115 q 747 128 747 115 l 747 128 l 747 143 q 753 160 747 153 l 753 160 l 1049 550 q 1065 558 1056 558 l 1065 558 l 1115 558 q 1128 546 1128 558 l 1128 546 l 1128 190 l 1196 190 q 1210 178 1210 190 l 1210 178 l 1210 128 q 1196 115 1210 115 l 1196 115 l 1128 115 l 1128 14 q 1115 0 1128 0 l 1115 0 z m 1035 425 l 857 190 l 1035 190 l 1035 425 z m 350 461 l 283 461 q 269 475 269 461 l 269 475 l 269 904 l 156 854 q 138 861 143 850 l 138 861 l 128 882 q 132 900 122 893 l 132 900 l 292 1015 q 307 1019 297 1019 l 307 1019 l 350 1019 q 364 1007 364 1019 l 364 1007 l 364 475 q 350 461 364 461 l 350 461 z "},"¾":{"ha":1258,"x_min":54,"x_max":1210,"o":"m 397 0 l 315 0 q 304 6 307 0 q 306 18 301 11 l 306 18 l 942 1010 q 960 1019 950 1019 l 960 1019 l 1040 1019 q 1052 1014 1049 1019 q 1050 1001 1056 1008 l 1050 1001 l 414 10 q 397 0 408 0 l 397 0 z m 1115 0 l 1049 0 q 1035 14 1035 0 l 1035 14 l 1035 115 l 760 115 q 747 128 747 115 l 747 128 l 747 143 q 753 160 747 153 l 753 160 l 1049 550 q 1065 558 1056 558 l 1065 558 l 1115 558 q 1128 546 1128 558 l 1128 546 l 1128 190 l 1196 190 q 1210 178 1210 190 l 1210 178 l 1210 128 q 1196 115 1210 115 l 1196 115 l 1128 115 l 1128 14 q 1115 0 1128 0 l 1115 0 z m 1035 425 l 857 190 l 1035 190 l 1035 425 z m 275 447 l 275 447 q 137 488 192 447 q 60 592 82 529 l 60 592 q 68 610 54 606 l 68 610 l 119 624 q 139 615 132 629 l 139 615 q 189 555 154 579 q 271 531 224 531 l 271 531 q 356 556 322 531 q 389 625 389 582 l 389 625 q 358 691 389 665 q 272 717 328 717 l 272 717 l 246 717 q 231 732 231 717 l 231 732 l 231 778 q 246 792 231 792 l 246 792 l 272 792 q 349 815 322 792 q 376 872 376 838 l 376 872 q 347 930 376 910 q 274 950 318 950 l 274 950 q 204 931 233 950 q 161 881 175 913 l 161 881 q 142 871 156 868 l 142 871 l 88 883 q 78 901 74 888 l 78 901 q 152 998 97 963 q 278 1033 207 1033 l 278 1033 q 417 992 364 1033 q 471 885 471 951 l 471 885 q 448 810 471 844 q 382 756 425 775 l 382 756 q 458 704 431 739 q 486 617 486 669 l 486 617 q 457 528 486 567 q 380 469 428 490 q 275 447 332 447 z "},"$":{"ha":803,"x_min":54,"x_max":731,"o":"m 446 -86 l 383 -86 q 369 -71 369 -86 l 369 -71 l 369 44 q 58 275 132 61 l 58 275 q 68 293 54 289 l 68 293 l 143 315 q 161 304 157 319 l 161 304 q 240 192 188 229 q 369 149 292 156 l 369 149 l 369 476 l 344 483 q 160 581 222 517 q 97 732 97 644 l 97 732 q 132 849 97 797 q 228 932 167 900 q 369 971 289 964 l 369 971 l 369 1086 q 383 1100 369 1100 l 383 1100 l 446 1100 q 460 1086 460 1100 l 460 1086 l 460 969 q 726 758 668 946 l 726 758 q 715 740 731 744 l 715 740 l 638 718 q 619 728 624 714 l 619 728 q 460 863 579 843 l 460 863 l 460 567 l 471 564 q 725 292 725 493 l 725 292 q 651 126 725 193 q 460 46 578 58 l 460 46 l 460 -71 q 446 -86 460 -86 l 446 -86 z m 214 735 l 214 735 q 251 651 214 685 q 369 592 288 617 l 369 592 l 369 865 q 256 823 299 858 q 214 735 214 788 z m 608 292 l 608 292 q 460 451 608 401 l 460 451 l 460 151 q 569 198 531 161 q 608 292 608 235 z "},"¢":{"ha":764,"x_min":58,"x_max":719,"o":"m 433 0 l 372 0 q 357 15 357 0 l 357 15 l 357 138 q 198 197 265 149 q 94 324 131 246 q 58 500 58 401 l 58 500 q 94 676 58 599 q 198 801 131 753 q 357 861 265 850 l 357 861 l 357 1006 q 372 1019 357 1019 l 372 1019 l 433 1019 q 449 1006 449 1019 l 449 1006 l 449 863 q 704 672 639 844 l 704 672 q 694 654 708 658 l 694 654 l 625 633 q 607 643 614 629 l 607 643 q 449 758 560 746 l 449 758 l 449 240 q 611 363 563 254 l 611 363 q 629 371 617 375 l 629 371 l 704 351 q 713 333 719 347 l 713 333 q 610 194 678 242 q 449 136 542 146 l 449 136 l 449 15 q 433 0 449 0 l 433 0 z m 172 500 l 172 500 q 218 334 172 407 q 357 243 264 261 l 357 243 l 357 756 q 217 665 263 738 q 172 500 172 592 z "},"£":{"ha":864,"x_min":89,"x_max":800,"o":"m 767 0 l 115 0 q 101 15 101 0 l 101 15 l 101 40 q 107 58 101 51 l 107 58 q 164 163 143 117 q 194 256 185 210 q 203 361 203 303 l 203 361 q 201 401 203 381 q 196 442 199 421 l 196 442 l 103 442 q 89 457 89 442 l 89 457 l 89 518 q 103 533 89 533 l 103 533 l 179 533 q 160 635 169 583 q 151 742 151 688 l 151 742 q 190 897 151 831 q 298 1001 228 964 q 461 1039 368 1039 l 461 1039 q 672 974 585 1039 q 796 793 760 908 l 796 793 q 785 775 800 778 l 785 775 l 703 753 q 685 763 689 749 l 685 763 q 601 883 658 842 q 467 925 544 925 l 467 925 q 323 873 375 925 q 271 722 271 821 l 271 722 q 280 630 271 678 q 299 533 289 582 l 299 533 l 549 533 q 564 518 564 533 l 564 518 l 564 457 q 549 442 564 442 l 549 442 l 315 442 q 318 392 318 414 l 318 392 q 303 254 318 318 q 246 110 289 190 l 246 110 l 767 110 q 781 96 781 110 l 781 96 l 781 15 q 767 0 781 0 l 767 0 z "},"¥":{"ha":942,"x_min":33,"x_max":910,"o":"m 414 203 l 183 203 q 168 217 168 203 l 168 217 l 168 265 q 183 279 168 279 l 183 279 l 414 279 l 414 396 l 183 396 q 168 410 168 396 l 168 410 l 168 458 q 183 472 168 472 l 183 472 l 369 472 l 38 1001 q 36 1014 33 1008 q 47 1019 39 1019 l 47 1019 l 146 1019 q 163 1010 158 1019 l 163 1010 l 472 503 l 782 1010 q 799 1019 786 1019 l 799 1019 l 894 1019 q 906 1014 903 1019 q 906 1001 910 1008 l 906 1001 l 572 472 l 761 472 q 775 458 775 472 l 775 458 l 775 410 q 761 396 775 396 l 761 396 l 529 396 l 529 279 l 761 279 q 775 265 775 279 l 775 265 l 775 217 q 761 203 775 203 l 761 203 l 529 203 l 529 15 q 515 0 529 0 l 515 0 l 428 0 q 414 15 414 0 l 414 15 l 414 203 z "},"€":{"ha":981,"x_min":44,"x_max":904,"o":"m 154 378 l 60 378 q 44 392 44 378 l 44 392 l 44 440 q 60 454 44 454 l 60 454 l 147 454 q 146 510 146 481 l 146 510 q 147 565 146 538 l 147 565 l 60 565 q 44 581 44 565 l 44 581 l 44 628 q 60 643 44 643 l 60 643 l 154 643 q 281 935 181 831 q 538 1039 381 1039 l 538 1039 q 747 978 661 1039 q 881 807 833 917 l 881 807 q 872 788 885 794 l 872 788 l 790 763 q 771 771 778 758 l 771 771 q 679 885 736 846 q 538 925 622 925 l 538 925 q 366 854 433 925 q 276 643 299 783 l 276 643 l 607 643 q 621 628 621 643 l 621 628 l 621 581 q 607 565 621 565 l 607 565 l 268 565 q 267 510 267 539 l 267 510 q 268 454 267 481 l 268 454 l 607 454 q 621 440 621 454 l 621 440 l 621 392 q 607 378 621 378 l 607 378 l 276 378 q 365 166 297 238 q 538 94 433 94 l 538 94 q 788 288 722 94 l 788 288 q 807 297 793 301 l 807 297 l 890 274 q 900 254 904 269 l 900 254 q 763 54 857 128 q 538 -19 669 -19 l 538 -19 q 281 85 381 -19 q 154 378 181 189 l 154 378 z "},"¤":{"ha":782,"x_min":50,"x_max":732,"o":"m 106 221 l 106 221 l 63 261 q 61 282 50 271 l 61 282 l 157 379 q 114 536 114 446 l 114 536 q 158 693 114 626 l 158 693 l 61 792 q 63 813 50 803 l 63 813 l 106 853 q 116 858 110 858 q 126 853 122 857 l 126 853 l 219 757 q 390 808 290 808 l 390 808 q 563 757 490 808 l 563 757 l 656 853 q 676 853 667 865 l 676 853 l 719 813 q 721 792 732 803 l 721 792 l 624 693 q 668 536 668 626 l 668 536 q 624 379 668 447 l 624 379 l 721 282 q 719 261 732 271 l 719 261 l 676 221 q 666 216 672 215 q 656 221 660 217 l 656 221 l 564 317 q 390 264 492 264 l 390 264 q 218 315 289 264 l 218 315 l 126 221 q 116 216 122 217 q 106 221 110 215 z m 390 356 l 390 356 q 519 406 469 356 q 569 536 569 456 l 569 536 q 519 668 569 618 q 390 718 469 718 l 390 718 q 263 668 313 718 q 213 536 213 618 l 213 536 q 263 406 213 456 q 390 356 313 356 z "},"^":{"ha":833,"x_min":96,"x_max":738,"o":"m 197 483 l 111 483 q 99 489 103 483 q 100 501 96 494 l 100 501 l 378 1010 q 394 1019 382 1019 l 394 1019 l 440 1019 q 457 1010 451 1019 l 457 1010 l 733 501 q 735 489 738 494 q 724 483 732 483 l 724 483 l 640 483 q 622 493 628 483 l 622 493 l 418 882 l 214 493 q 197 483 210 483 l 197 483 z "},"+":{"ha":833,"x_min":94,"x_max":740,"o":"m 457 129 l 376 129 q 363 144 363 129 l 363 144 l 363 400 l 108 400 q 94 415 94 400 l 94 415 l 94 492 q 108 507 94 507 l 108 507 l 363 507 l 363 763 q 376 778 363 778 l 376 778 l 457 778 q 472 763 472 778 l 472 763 l 472 507 l 725 507 q 740 492 740 507 l 740 492 l 740 415 q 725 400 740 400 l 725 400 l 472 400 l 472 144 q 457 129 472 129 l 457 129 z "},"−":{"ha":833,"x_min":94,"x_max":740,"o":"m 725 400 l 108 400 q 94 414 94 400 l 94 414 l 94 492 q 108 506 94 506 l 108 506 l 725 506 q 740 492 740 506 l 740 492 l 740 414 q 725 400 740 400 l 725 400 z "},"=":{"ha":833,"x_min":94,"x_max":740,"o":"m 725 226 l 108 226 q 94 240 94 226 l 94 240 l 94 318 q 108 332 94 332 l 108 332 l 725 332 q 740 318 740 332 l 740 318 l 740 240 q 725 226 740 226 l 725 226 z m 725 583 l 108 583 q 94 597 94 583 l 94 597 l 94 675 q 108 689 94 689 l 108 689 l 725 689 q 740 675 740 689 l 740 675 l 740 597 q 725 583 740 583 l 725 583 z "},"÷":{"ha":833,"x_min":94,"x_max":740,"o":"m 414 640 l 414 640 q 360 661 382 640 q 338 715 338 682 l 338 715 q 360 768 338 747 q 414 789 382 789 l 414 789 q 468 768 446 789 q 490 715 490 747 l 490 715 q 468 661 490 682 q 414 640 446 640 z m 725 400 l 108 400 q 94 414 94 400 l 94 414 l 94 492 q 108 506 94 506 l 108 506 l 725 506 q 740 492 740 506 l 740 492 l 740 414 q 725 400 740 400 l 725 400 z m 414 111 l 414 111 q 360 132 382 111 q 338 188 338 153 l 338 188 q 360 240 338 219 q 414 260 382 260 l 414 260 q 468 240 446 260 q 490 188 490 219 l 490 188 q 468 132 490 153 q 414 111 446 111 z "},"<":{"ha":833,"x_min":110,"x_max":696,"o":"m 696 226 l 696 139 q 679 129 696 119 l 679 129 l 121 410 q 110 426 110 414 l 110 426 l 110 471 q 121 489 110 482 l 121 489 l 679 769 q 696 758 696 778 l 696 758 l 696 674 q 685 657 696 661 l 685 657 l 267 450 l 685 243 q 696 226 696 239 l 696 226 z "},">":{"ha":833,"x_min":138,"x_max":724,"o":"m 714 410 l 154 129 q 138 139 138 119 l 138 139 l 138 224 q 149 242 138 235 l 149 242 l 569 449 l 149 654 q 138 672 138 661 l 138 672 l 138 758 q 154 769 138 776 l 154 769 l 714 489 q 724 471 724 483 l 724 471 l 724 426 q 714 410 724 414 l 714 410 z "},"~":{"ha":833,"x_min":68,"x_max":767,"o":"m 572 293 l 572 293 q 481 313 517 293 q 420 363 444 333 q 376 423 396 393 q 331 473 356 453 q 271 493 307 493 l 271 493 q 195 451 224 493 q 163 332 167 410 l 163 332 q 149 317 163 317 l 149 317 l 82 317 q 68 332 68 317 l 68 332 q 122 529 71 458 q 263 600 174 600 l 263 600 q 355 580 319 600 q 415 530 390 560 q 459 470 439 500 q 503 420 479 440 q 564 400 528 400 l 564 400 q 640 443 611 400 q 672 563 668 486 l 672 563 q 686 576 672 576 l 686 576 l 753 576 q 767 556 767 576 l 767 556 q 711 363 763 433 q 572 293 660 293 z "},"¬":{"ha":833,"x_min":79,"x_max":681,"o":"m 667 190 l 588 190 q 571 204 571 190 l 571 204 l 571 456 l 94 456 q 79 469 79 456 l 79 469 l 79 547 q 94 561 79 561 l 94 561 l 667 561 q 681 547 681 561 l 681 547 l 681 204 q 667 190 681 190 l 667 190 z "},"×":{"ha":833,"x_min":122,"x_max":710,"o":"m 183 172 l 183 172 l 135 221 q 135 243 126 232 l 135 243 l 346 454 l 133 665 q 133 688 122 674 l 133 688 l 185 740 q 196 745 189 746 q 207 740 203 744 l 207 740 l 419 528 l 629 738 q 640 742 633 742 q 651 739 647 743 l 651 739 l 700 689 q 699 667 710 676 l 699 667 l 490 457 l 701 246 q 706 235 707 242 q 701 225 706 229 l 701 225 l 650 172 q 626 172 639 161 l 626 172 l 415 383 l 206 172 q 194 167 201 167 q 183 172 188 167 z "},"_":{"ha":783,"x_min":63,"x_max":721,"o":"m 707 -207 l 76 -207 q 67 -202 72 -207 q 63 -192 63 -197 l 63 -192 l 63 -115 q 67 -105 63 -110 q 76 -100 72 -100 l 76 -100 l 707 -100 q 717 -105 713 -100 q 721 -115 721 -110 l 721 -115 l 721 -192 q 707 -207 721 -207 l 707 -207 z "},"§":{"ha":717,"x_min":83,"x_max":626,"o":"m 324 -147 l 324 -147 q 180 -108 240 -147 q 90 17 119 -68 l 90 17 q 100 36 83 32 l 100 36 l 171 54 q 189 44 183 57 l 189 44 q 318 -51 233 -51 l 318 -51 q 407 -20 375 -51 q 439 57 439 11 l 439 57 q 429 123 439 90 q 404 186 419 156 l 404 186 q 358 183 382 183 l 358 183 q 217 217 278 183 q 124 310 157 251 q 90 446 90 369 l 90 446 q 122 578 90 519 q 210 671 154 636 l 210 671 q 172 754 185 714 q 158 839 158 794 l 158 839 q 185 940 158 894 q 263 1012 213 985 q 382 1039 314 1039 l 382 1039 q 526 999 465 1039 q 615 875 586 960 l 615 875 q 606 856 622 860 l 606 856 l 535 838 q 517 847 522 835 l 517 847 q 388 943 472 943 l 388 943 q 299 912 332 943 q 267 835 267 881 l 267 835 q 276 768 267 801 q 301 704 286 735 l 301 704 q 358 708 329 708 l 358 708 q 500 674 440 708 q 593 581 560 640 q 626 446 626 522 l 626 446 q 592 309 626 369 q 499 217 558 249 l 499 217 q 535 135 522 175 q 547 53 547 96 l 547 53 q 520 -48 547 -3 q 443 -120 493 -93 q 324 -147 393 -147 z m 358 272 l 358 272 q 480 320 432 272 q 528 446 528 368 l 528 446 q 480 572 528 524 q 358 619 432 619 l 358 619 q 237 572 285 619 q 189 446 189 524 l 189 446 q 237 320 189 368 q 358 272 285 272 z "},"¶":{"ha":815,"x_min":72,"x_max":676,"o":"m 492 -125 l 431 -125 q 417 -110 417 -125 l 417 -110 l 417 338 l 408 338 q 241 377 318 338 q 118 493 164 417 q 72 679 72 569 l 72 679 q 118 866 72 790 q 241 981 164 942 q 408 1019 318 1019 l 408 1019 l 661 1019 q 676 1006 676 1019 l 676 1006 l 676 -110 q 661 -125 676 -125 l 661 -125 l 600 -125 q 586 -110 586 -125 l 586 -110 l 586 936 l 507 936 l 507 -110 q 492 -125 507 -125 l 492 -125 z "},"#":{"ha":1057,"x_min":74,"x_max":985,"o":"m 264 0 l 196 0 q 182 17 179 0 l 182 17 l 242 271 l 89 271 q 75 288 74 271 l 75 288 l 90 354 q 107 367 96 367 l 107 367 l 265 367 l 333 654 l 181 654 q 167 671 165 654 l 167 671 l 182 738 q 199 750 188 750 l 199 750 l 356 750 l 417 1006 q 433 1018 421 1018 l 433 1018 l 503 1018 q 515 1003 519 1018 l 515 1003 l 456 750 l 714 750 l 775 1006 q 792 1018 779 1018 l 792 1018 l 861 1018 q 874 1003 878 1018 l 874 1003 l 814 750 l 968 750 q 982 735 985 750 l 982 735 l 967 668 q 950 654 963 654 l 950 654 l 790 654 l 722 367 l 876 367 q 890 351 893 367 l 890 351 l 875 285 q 858 271 871 271 l 858 271 l 699 271 l 638 13 q 621 0 635 0 l 621 0 l 554 0 q 540 17 538 0 l 540 17 l 600 271 l 342 271 l 281 13 q 264 0 275 0 l 264 0 z m 433 654 l 364 367 l 624 367 l 692 654 l 433 654 z "},"|":{"ha":382,"x_min":136,"x_max":247,"o":"m 232 -153 l 150 -153 q 136 -137 136 -153 l 136 -137 l 136 1028 q 150 1042 136 1042 l 150 1042 l 232 1042 q 247 1028 247 1042 l 247 1028 l 247 -137 q 232 -153 247 -153 l 232 -153 z "},"†":{"ha":663,"x_min":74,"x_max":590,"o":"m 374 -125 l 289 -125 q 276 -111 276 -125 l 276 -111 l 276 633 l 86 633 q 74 646 74 633 l 74 646 l 74 721 q 86 733 74 733 l 86 733 l 276 733 l 276 1007 q 289 1019 276 1019 l 289 1019 l 374 1019 q 388 1007 388 1019 l 388 1007 l 388 733 l 576 733 q 590 721 590 733 l 590 721 l 590 646 q 576 633 590 633 l 576 633 l 388 633 l 388 -111 q 374 -125 388 -125 l 374 -125 z "},"‡":{"ha":663,"x_min":74,"x_max":590,"o":"m 276 175 l 86 175 q 74 189 74 175 l 74 189 l 74 263 q 86 276 74 276 l 86 276 l 276 276 l 276 633 l 86 633 q 74 646 74 633 l 74 646 l 74 721 q 86 733 74 733 l 86 733 l 276 733 l 276 1007 q 289 1019 276 1019 l 289 1019 l 374 1019 q 388 1007 388 1019 l 388 1007 l 388 733 l 576 733 q 590 721 590 733 l 590 721 l 590 646 q 576 633 590 633 l 576 633 l 388 633 l 388 276 l 576 276 q 590 263 590 276 l 590 263 l 590 189 q 576 175 590 175 l 576 175 l 388 175 l 388 -111 q 374 -125 388 -125 l 374 -125 l 289 -125 q 276 -111 276 -125 l 276 -111 l 276 175 z "},"&":{"ha":969,"x_min":85,"x_max":921,"o":"m 458 -19 l 458 -19 q 254 22 338 -19 q 128 131 171 63 q 85 282 85 199 l 85 282 q 133 444 85 378 q 279 539 181 511 l 279 539 q 156 630 196 568 q 115 771 115 692 l 115 771 q 158 909 115 849 q 274 1004 200 969 q 440 1039 347 1039 l 440 1039 q 651 975 564 1039 q 767 804 739 911 l 767 804 q 757 786 771 790 l 757 786 l 672 767 q 654 778 658 765 l 654 778 q 575 893 631 851 q 440 935 519 935 l 440 935 q 294 885 351 935 q 236 757 236 835 l 236 757 q 282 635 236 685 q 411 585 328 585 l 411 585 l 467 585 q 481 571 481 585 l 481 571 l 481 499 q 467 483 481 483 l 467 483 l 417 483 q 260 431 315 483 q 206 293 206 379 l 206 293 q 269 145 206 206 q 458 85 332 85 l 458 85 q 665 147 600 85 q 731 306 731 208 l 731 306 q 716 391 731 350 q 676 458 701 432 q 619 485 651 485 l 619 485 l 608 485 q 599 499 599 485 l 599 499 l 599 571 q 613 585 599 585 l 613 585 l 907 585 q 921 571 921 585 l 921 571 l 921 499 q 907 483 921 483 l 907 483 l 772 483 q 824 403 804 453 q 844 293 844 354 l 844 293 q 801 135 844 206 q 672 22 758 64 q 458 -19 586 -19 z "},"*":{"ha":658,"x_min":65,"x_max":593,"o":"m 156 519 l 156 519 l 129 539 q 125 560 119 547 l 125 560 l 249 736 l 75 842 q 69 863 65 849 l 69 863 l 86 893 q 106 899 92 906 l 106 899 l 283 818 l 296 1006 q 311 1019 297 1019 l 311 1019 l 347 1019 q 363 1006 361 1019 l 363 1006 l 375 818 l 553 899 q 572 893 567 906 l 572 893 l 589 863 q 583 842 593 849 l 583 842 l 410 736 l 533 560 q 529 539 540 547 l 529 539 l 503 519 q 482 522 490 513 l 482 522 l 329 685 l 176 522 q 156 519 168 513 z "},"°":{"ha":571,"x_min":81,"x_max":490,"o":"m 286 638 l 286 638 q 137 694 193 638 q 81 839 81 750 l 81 839 q 137 983 81 926 q 286 1039 193 1039 l 286 1039 q 434 983 378 1039 q 490 839 490 926 l 490 839 q 434 694 490 750 q 286 638 378 638 z m 286 711 l 286 711 q 375 746 340 711 q 410 839 410 781 l 410 839 q 375 932 410 897 q 286 967 340 967 l 286 967 q 196 932 231 967 q 161 839 161 897 l 161 839 q 196 746 161 781 q 286 711 231 711 z "},"-":{"ha":650,"x_min":107,"x_max":544,"o":"m 529 400 l 121 400 q 107 414 107 400 l 107 414 l 107 492 q 121 506 107 506 l 121 506 l 529 506 q 544 492 544 506 l 544 492 l 544 414 q 529 400 544 400 l 529 400 z "},"‐":{"ha":650,"x_min":107,"x_max":544,"o":"m 529 400 l 121 400 q 107 414 107 400 l 107 414 l 107 492 q 121 506 107 506 l 121 506 l 529 506 q 544 492 544 506 l 544 492 l 544 414 q 529 400 544 400 l 529 400 z "},"‑":{"ha":650,"x_min":107,"x_max":544,"o":"m 529 400 l 121 400 q 107 414 107 400 l 107 414 l 107 492 q 121 506 107 506 l 121 506 l 529 506 q 544 492 544 506 l 544 492 l 544 414 q 529 400 544 400 l 529 400 z "},"­":{"ha":650,"x_min":107,"x_max":544,"o":"m 529 400 l 121 400 q 107 414 107 400 l 107 414 l 107 492 q 121 506 107 506 l 121 506 l 529 506 q 544 492 544 506 l 544 492 l 544 414 q 529 400 544 400 l 529 400 z "},"–":{"ha":694,"x_min":0,"x_max":694,"o":"m 681 400 l 15 400 q 0 414 0 400 l 0 414 l 0 492 q 15 506 0 506 l 15 506 l 681 506 q 694 492 694 506 l 694 492 l 694 414 q 681 400 694 400 l 681 400 z "},"—":{"ha":1389,"x_min":0,"x_max":1389,"o":"m 1375 400 l 15 400 q 0 414 0 400 l 0 414 l 0 492 q 15 506 0 506 l 15 506 l 1375 506 q 1389 492 1389 506 l 1389 492 l 1389 414 q 1375 400 1389 400 l 1375 400 z "},"(":{"ha":521,"x_min":75,"x_max":493,"o":"m 478 -207 l 478 -207 q 75 444 75 -185 l 75 444 q 478 1097 75 1072 l 478 1097 q 493 1083 493 1097 l 493 1083 l 493 1006 q 479 990 493 993 l 479 990 q 264 849 333 981 q 194 444 194 718 l 194 444 q 264 41 194 172 q 479 -101 333 -90 l 479 -101 q 493 -117 493 -101 l 493 -117 l 493 -193 q 478 -207 493 -210 z "},")":{"ha":521,"x_min":28,"x_max":446,"o":"m 43 -207 l 43 -207 q 28 -193 28 -210 l 28 -193 l 28 -117 q 42 -101 28 -101 l 42 -101 q 257 41 188 -90 q 326 444 326 172 l 326 444 q 257 849 326 718 q 42 990 188 981 l 42 990 q 28 1006 28 993 l 28 1006 l 28 1083 q 43 1097 28 1097 l 43 1097 q 446 444 446 1072 l 446 444 q 43 -207 446 -185 z "},"/":{"ha":543,"x_min":54,"x_max":490,"o":"m 153 -153 l 69 -153 q 57 -136 54 -153 l 57 -136 l 375 1029 q 392 1042 379 1042 l 392 1042 l 474 1042 q 486 1025 490 1042 l 486 1025 l 168 -140 q 153 -153 167 -153 l 153 -153 z "},"\\":{"ha":543,"x_min":56,"x_max":490,"o":"m 474 -153 l 474 -153 l 392 -153 q 375 -140 379 -153 l 375 -140 l 57 1025 q 69 1042 56 1042 l 69 1042 l 153 1042 q 168 1029 167 1042 l 168 1029 l 486 -136 q 474 -153 490 -153 z "},"[":{"ha":432,"x_min":94,"x_max":404,"o":"m 389 -208 l 110 -208 q 94 -193 94 -208 l 94 -193 l 94 1083 q 110 1097 94 1097 l 110 1097 l 389 1097 q 404 1083 404 1097 l 404 1083 l 404 1008 q 389 994 404 994 l 389 994 l 207 994 l 207 -104 l 389 -104 q 404 -119 404 -104 l 404 -119 l 404 -193 q 389 -208 404 -208 l 389 -208 z "},"]":{"ha":432,"x_min":28,"x_max":338,"o":"m 322 -208 l 43 -208 q 28 -193 28 -208 l 28 -193 l 28 -119 q 43 -104 28 -104 l 43 -104 l 225 -104 l 225 994 l 43 994 q 28 1008 28 994 l 28 1008 l 28 1083 q 43 1097 28 1097 l 43 1097 l 322 1097 q 338 1083 338 1097 l 338 1083 l 338 -193 q 322 -208 338 -208 l 322 -208 z "},"{":{"ha":551,"x_min":78,"x_max":524,"o":"m 510 -208 l 494 -208 q 339 -180 407 -208 q 233 -90 271 -151 q 194 74 194 -28 l 194 74 l 194 314 q 182 377 194 360 q 138 394 169 394 l 138 394 l 93 394 q 78 410 78 394 l 78 410 l 78 481 q 93 494 78 494 l 93 494 l 138 494 q 182 513 169 494 q 194 576 194 531 l 194 576 l 194 817 q 233 980 194 918 q 339 1069 271 1042 q 494 1097 407 1097 l 494 1097 l 510 1097 q 524 1083 524 1097 l 524 1083 l 524 1008 q 510 993 524 993 l 510 993 l 501 993 q 353 946 400 993 q 306 804 306 899 l 306 804 l 306 554 q 292 483 306 513 q 249 446 278 454 l 249 446 q 292 407 278 436 q 306 336 306 378 l 306 336 l 306 86 q 353 -56 306 -8 q 501 -104 400 -104 l 501 -104 l 510 -104 q 524 -118 524 -104 l 524 -118 l 524 -193 q 510 -208 524 -208 l 510 -208 z "},"}":{"ha":551,"x_min":28,"x_max":474,"o":"m 57 -208 l 43 -208 q 28 -193 28 -208 l 28 -193 l 28 -118 q 43 -104 28 -104 l 43 -104 l 51 -104 q 199 -56 151 -104 q 246 86 246 -8 l 246 86 l 246 336 q 260 407 246 378 q 303 444 274 436 l 303 444 q 260 483 274 454 q 246 554 246 513 l 246 554 l 246 804 q 199 946 246 899 q 51 993 151 993 l 51 993 l 43 993 q 28 1008 28 993 l 28 1008 l 28 1083 q 43 1097 28 1097 l 43 1097 l 57 1097 q 213 1069 146 1097 q 319 980 281 1042 q 357 817 357 918 l 357 817 l 357 576 q 370 513 357 531 q 415 494 383 494 l 415 494 l 460 494 q 474 481 474 494 l 474 481 l 474 410 q 460 394 474 394 l 460 394 l 415 394 q 370 377 383 394 q 357 314 357 360 l 357 314 l 357 74 q 319 -90 357 -28 q 213 -180 281 -151 q 57 -208 146 -208 l 57 -208 z "},"•":{"ha":561,"x_min":131,"x_max":432,"o":"m 281 278 l 281 278 q 206 298 240 278 q 151 353 171 318 q 131 428 131 388 l 131 428 q 151 504 131 469 q 206 559 171 539 q 281 579 240 579 l 281 579 q 388 535 343 579 q 432 428 432 490 l 432 428 q 412 353 432 388 q 357 298 392 318 q 281 278 322 278 z "},"@":{"ha":1369,"x_min":81,"x_max":1289,"o":"m 682 -281 l 682 -281 q 362 -206 497 -281 q 153 3 226 -131 q 81 314 81 138 l 81 314 q 158 631 81 496 q 373 841 235 767 q 694 915 511 915 l 694 915 q 1012 843 879 915 q 1217 641 1144 771 q 1289 338 1289 511 l 1289 338 q 1258 156 1289 236 q 1173 31 1228 76 q 1046 -14 1118 -14 l 1046 -14 q 938 22 981 -14 q 890 128 896 58 l 890 128 q 794 25 858 64 q 654 -14 731 -14 l 654 -14 q 494 28 564 -14 q 387 143 425 69 q 349 313 349 217 l 349 313 q 387 483 349 410 q 494 598 425 557 q 654 639 564 639 l 654 639 q 790 603 728 639 q 885 508 851 567 l 885 508 l 889 611 q 904 626 889 626 l 904 626 l 961 626 q 975 611 975 626 l 975 611 l 975 186 q 1058 78 975 78 l 1058 78 q 1128 112 1099 78 q 1174 205 1157 146 q 1190 338 1190 264 l 1190 338 q 1128 606 1190 497 q 954 769 1065 714 q 694 825 843 825 l 694 825 q 432 768 549 825 q 247 598 315 711 q 179 314 179 485 l 179 314 q 246 34 179 146 q 429 -134 313 -78 q 696 -190 546 -190 l 696 -190 q 835 -178 771 -190 l 835 -178 q 850 -190 850 -174 l 850 -190 l 850 -250 q 840 -265 850 -264 l 840 -265 q 767 -277 806 -274 q 682 -281 728 -281 z m 668 81 l 668 81 q 824 144 764 81 q 883 313 883 208 l 883 313 q 824 481 883 417 q 668 546 764 546 l 668 546 q 513 481 572 546 q 453 313 453 417 l 453 313 q 513 144 453 208 q 668 81 572 81 z "},"·":{"ha":446,"x_min":147,"x_max":308,"o":"m 228 383 l 228 383 q 170 406 193 383 q 147 463 147 428 l 147 463 q 170 519 147 497 q 228 542 193 542 l 228 542 q 285 519 263 542 q 308 463 308 497 l 308 463 q 285 406 308 428 q 228 383 263 383 z "},"A":{"ha":1000,"x_min":31,"x_max":971,"o":"m 144 0 l 49 0 q 38 17 31 0 l 38 17 l 442 1008 q 460 1019 447 1019 l 460 1019 l 542 1019 q 558 1008 554 1019 l 558 1008 l 964 17 q 953 0 971 0 l 953 0 l 853 0 q 836 11 840 0 l 836 11 l 740 256 l 258 256 l 163 11 q 144 0 157 0 l 144 0 z m 499 875 l 300 364 l 699 364 l 499 875 z "},"B":{"ha":932,"x_min":125,"x_max":857,"o":"m 490 0 l 140 0 q 125 15 125 0 l 125 15 l 125 1006 q 140 1019 125 1019 l 140 1019 l 472 1019 q 663 985 589 1019 q 773 893 738 951 q 808 761 808 835 l 808 761 q 769 619 808 679 q 654 533 729 560 l 654 533 q 806 445 756 510 q 857 285 857 381 l 857 285 q 819 137 857 201 q 701 36 782 72 q 490 0 619 0 l 490 0 z m 465 911 l 465 911 l 242 911 l 242 581 l 474 581 q 638 625 586 581 q 690 746 690 669 l 690 746 q 635 867 690 822 q 465 911 579 911 z m 490 474 l 490 474 l 242 474 l 242 110 l 490 110 q 677 158 617 110 q 738 293 738 206 l 738 293 q 677 426 738 379 q 490 474 617 474 z "},"C":{"ha":1082,"x_min":81,"x_max":1013,"o":"m 564 -19 l 564 -19 q 310 45 419 -19 q 141 228 201 110 q 81 510 81 347 l 81 510 q 142 791 81 672 q 313 974 204 910 q 565 1039 422 1039 l 565 1039 q 830 969 722 1039 q 989 771 938 899 l 989 771 q 979 751 994 756 l 979 751 l 894 726 q 876 735 882 722 l 876 735 q 757 876 833 828 q 567 925 681 925 l 567 925 q 367 872 449 925 q 244 725 286 818 q 201 510 201 632 l 201 510 q 244 294 201 388 q 368 147 286 200 q 567 94 450 94 l 567 94 q 774 154 689 94 q 897 326 858 214 l 897 326 q 915 336 901 340 l 915 336 l 1000 311 q 1010 296 1013 307 l 1010 296 q 854 69 967 157 q 564 -19 742 -19 z "},"D":{"ha":1039,"x_min":125,"x_max":958,"o":"m 444 0 l 140 0 q 125 15 125 0 l 125 15 l 125 1006 q 140 1019 125 1019 l 140 1019 l 444 1019 q 732 957 618 1019 q 902 780 846 894 q 958 510 958 665 l 958 510 q 902 241 958 356 q 732 63 846 126 q 444 0 618 0 l 444 0 z m 431 910 l 431 910 l 242 910 l 242 110 l 431 110 q 737 216 636 110 q 838 510 838 322 l 838 510 q 737 804 838 699 q 431 910 636 910 z "},"E":{"ha":839,"x_min":125,"x_max":785,"o":"m 771 0 l 140 0 q 125 15 125 0 l 125 15 l 125 1006 q 140 1019 125 1019 l 140 1019 l 754 1019 q 769 1006 769 1019 l 769 1006 l 769 925 q 754 910 769 910 l 754 910 l 242 910 l 242 582 l 710 582 q 724 567 724 582 l 724 567 l 724 488 q 710 474 724 474 l 710 474 l 242 474 l 242 110 l 771 110 q 785 96 785 110 l 785 96 l 785 15 q 771 0 785 0 l 771 0 z "},"F":{"ha":800,"x_min":125,"x_max":750,"o":"m 226 0 l 140 0 q 125 15 125 0 l 125 15 l 125 1006 q 140 1019 125 1019 l 140 1019 l 735 1019 q 750 1006 750 1019 l 750 1006 l 750 925 q 735 910 750 910 l 735 910 l 242 910 l 242 558 l 675 558 q 690 544 690 558 l 690 544 l 690 464 q 675 449 690 449 l 675 449 l 242 449 l 242 15 q 226 0 242 0 l 226 0 z "},"G":{"ha":1107,"x_min":81,"x_max":1026,"o":"m 569 -19 l 569 -19 q 313 46 424 -19 q 142 230 203 111 q 81 510 81 349 l 81 510 q 143 791 81 672 q 317 974 206 910 q 571 1039 428 1039 l 571 1039 q 834 969 726 1039 q 993 771 942 899 l 993 771 q 985 751 1000 757 l 985 751 l 899 726 q 881 735 888 722 l 881 735 q 761 876 838 828 q 572 925 685 925 l 572 925 q 371 872 454 925 q 244 724 288 818 q 201 510 201 631 l 201 510 q 245 295 201 389 q 372 148 289 201 q 572 94 454 94 l 572 94 q 749 133 674 94 q 867 246 825 172 q 910 422 910 319 l 910 422 l 597 422 q 582 436 582 422 l 582 436 l 582 515 q 597 531 582 531 l 597 531 l 1011 531 q 1026 515 1026 531 l 1026 515 l 1026 429 q 974 201 1026 303 q 821 40 922 99 q 569 -19 719 -19 z "},"H":{"ha":1049,"x_min":125,"x_max":924,"o":"m 226 0 l 140 0 q 125 15 125 0 l 125 15 l 125 1006 q 140 1019 125 1019 l 140 1019 l 226 1019 q 242 1006 242 1019 l 242 1006 l 242 581 l 808 581 l 808 1006 q 822 1019 808 1019 l 822 1019 l 910 1019 q 924 1006 924 1019 l 924 1006 l 924 15 q 910 0 924 0 l 910 0 l 822 0 q 808 15 808 0 l 808 15 l 808 471 l 242 471 l 242 15 q 226 0 242 0 l 226 0 z "},"I":{"ha":367,"x_min":125,"x_max":242,"o":"m 226 0 l 140 0 q 125 15 125 0 l 125 15 l 125 1006 q 140 1019 125 1019 l 140 1019 l 226 1019 q 242 1006 242 1019 l 242 1006 l 242 15 q 226 0 242 0 l 226 0 z "},"J":{"ha":692,"x_min":15,"x_max":579,"o":"m 290 -19 l 290 -19 q 122 32 193 -19 q 18 192 50 83 l 18 192 q 29 210 15 206 l 29 210 l 110 233 q 128 222 124 238 l 128 222 q 189 128 149 161 q 290 94 229 94 l 290 94 q 399 125 361 94 q 450 211 436 156 q 464 340 464 267 l 464 340 l 464 910 l 168 910 q 153 925 153 910 l 153 925 l 153 1006 q 168 1019 153 1019 l 168 1019 l 565 1019 q 579 1006 579 1019 l 579 1006 l 579 319 q 507 64 579 147 q 290 -19 435 -19 z "},"K":{"ha":965,"x_min":125,"x_max":914,"o":"m 226 0 l 140 0 q 125 15 125 0 l 125 15 l 125 1006 q 140 1019 125 1019 l 140 1019 l 226 1019 q 242 1006 242 1019 l 242 1006 l 242 460 l 729 1013 q 747 1019 735 1019 l 747 1019 l 849 1019 q 860 1014 858 1019 q 857 1001 863 1008 l 857 1001 l 522 626 l 910 18 q 910 6 914 11 q 899 0 907 0 l 899 0 l 794 0 q 778 10 783 0 l 778 10 l 446 540 l 242 313 l 242 15 q 226 0 242 0 l 226 0 z "},"L":{"ha":835,"x_min":125,"x_max":790,"o":"m 775 0 l 140 0 q 125 15 125 0 l 125 15 l 125 1006 q 140 1019 125 1019 l 140 1019 l 226 1019 q 242 1006 242 1019 l 242 1006 l 242 111 l 775 111 q 790 97 790 111 l 790 97 l 790 15 q 775 0 790 0 l 775 0 z "},"M":{"ha":1294,"x_min":125,"x_max":1169,"o":"m 224 0 l 140 0 q 125 15 125 0 l 125 15 l 125 1006 q 140 1019 125 1019 l 140 1019 l 233 1019 q 250 1010 246 1019 l 250 1010 l 650 335 l 1047 1010 q 1064 1019 1053 1019 l 1064 1019 l 1154 1019 q 1169 1006 1169 1019 l 1169 1006 l 1169 15 q 1154 0 1169 0 l 1154 0 l 1071 0 q 1057 15 1057 0 l 1057 15 l 1057 819 l 693 204 q 676 194 689 194 l 676 194 l 618 194 q 601 204 607 194 l 601 204 l 238 819 l 238 15 q 224 0 238 0 l 224 0 z "},"N":{"ha":1039,"x_min":125,"x_max":914,"o":"m 224 0 l 140 0 q 125 15 125 0 l 125 15 l 125 1006 q 140 1019 125 1019 l 140 1019 l 233 1019 q 251 1010 243 1019 l 251 1010 l 801 188 l 801 1006 q 817 1019 801 1019 l 817 1019 l 900 1019 q 914 1006 914 1019 l 914 1006 l 914 15 q 900 0 914 0 l 900 0 l 807 0 q 789 10 797 0 l 789 10 l 238 835 l 238 15 q 224 0 238 0 l 224 0 z "},"O":{"ha":1150,"x_min":81,"x_max":1069,"o":"m 575 -19 l 575 -19 q 319 46 431 -19 q 144 230 207 111 q 81 510 81 349 l 81 510 q 144 791 81 672 q 319 974 207 910 q 575 1039 431 1039 l 575 1039 q 832 974 721 1039 q 1006 791 943 910 q 1069 510 1069 672 l 1069 510 q 1006 230 1069 349 q 832 46 943 111 q 575 -19 721 -19 z m 575 94 l 575 94 q 778 149 694 94 q 906 297 861 203 q 950 510 950 390 l 950 510 q 906 724 950 631 q 778 872 861 818 q 575 925 694 925 l 575 925 q 374 871 457 925 q 246 723 290 817 q 201 510 201 629 l 201 510 q 246 297 201 390 q 374 149 290 203 q 575 94 457 94 z "},"P":{"ha":883,"x_min":125,"x_max":818,"o":"m 226 0 l 140 0 q 125 15 125 0 l 125 15 l 125 1006 q 140 1019 125 1019 l 140 1019 l 436 1019 q 725 929 632 1019 q 818 682 818 839 l 818 682 q 726 433 818 522 q 436 344 633 344 l 436 344 l 242 344 l 242 15 q 226 0 242 0 l 226 0 z m 429 911 l 429 911 l 242 911 l 242 453 l 429 453 q 633 510 568 453 q 697 685 697 568 l 697 685 q 633 853 697 796 q 429 911 568 911 z "},"Q":{"ha":1169,"x_min":81,"x_max":1089,"o":"m 1075 0 l 576 0 q 315 63 426 0 q 142 243 203 126 q 81 517 81 360 l 81 517 q 142 792 81 675 q 315 974 204 910 q 572 1039 426 1039 l 572 1039 q 827 975 718 1039 q 997 797 936 911 q 1057 533 1057 683 l 1057 533 q 997 274 1057 385 q 831 108 936 163 l 831 108 l 1075 108 q 1089 94 1089 108 l 1089 94 l 1089 15 q 1075 0 1089 0 l 1075 0 z m 569 114 l 569 114 q 769 167 688 114 q 894 312 851 219 q 938 521 938 404 l 938 521 q 894 727 938 636 q 769 872 851 818 q 569 925 688 925 l 569 925 q 369 872 451 925 q 244 726 288 818 q 201 519 201 635 l 201 519 q 244 312 201 404 q 369 167 288 219 q 569 114 451 114 z "},"R":{"ha":924,"x_min":125,"x_max":853,"o":"m 226 0 l 140 0 q 125 15 125 0 l 125 15 l 125 1006 q 140 1019 125 1019 l 140 1019 l 436 1019 q 728 931 638 1019 q 818 686 818 843 l 818 686 q 774 505 818 583 q 636 386 731 426 l 636 386 l 849 18 q 850 6 853 11 q 839 0 847 0 l 839 0 l 739 0 q 722 10 728 0 l 722 10 l 524 357 q 436 351 482 351 l 436 351 l 242 351 l 242 15 q 226 0 242 0 l 226 0 z m 429 911 l 429 911 l 242 911 l 242 460 l 429 460 q 634 517 571 460 q 697 686 697 575 l 697 686 q 634 854 697 797 q 429 911 571 911 z "},"S":{"ha":817,"x_min":53,"x_max":757,"o":"m 418 -19 l 418 -19 q 189 48 281 -19 q 57 249 97 115 l 57 249 q 67 267 53 263 l 67 267 l 150 288 q 168 278 163 292 l 168 278 q 260 139 200 183 q 418 94 319 94 l 418 94 q 577 137 517 94 q 638 258 638 179 l 638 258 q 582 384 638 340 q 428 463 526 428 l 428 463 l 351 489 q 154 601 225 532 q 83 771 83 669 l 83 771 q 125 910 83 850 q 240 1005 167 971 q 403 1039 313 1039 l 403 1039 q 617 978 531 1039 q 738 794 703 918 l 738 794 q 728 776 742 779 l 728 776 l 640 754 q 622 764 626 750 l 622 764 q 542 887 596 849 q 403 925 488 925 l 403 925 q 258 883 314 925 q 203 774 203 842 l 203 774 q 411 589 203 657 l 411 589 l 479 567 q 689 450 621 519 q 757 258 757 381 l 757 258 q 714 114 757 176 q 594 16 671 51 q 418 -19 518 -19 z "},"T":{"ha":906,"x_min":46,"x_max":860,"o":"m 496 0 l 410 0 q 394 15 394 0 l 394 15 l 394 910 l 60 910 q 46 925 46 910 l 46 925 l 46 1006 q 60 1019 46 1019 l 60 1019 l 846 1019 q 860 1006 860 1019 l 860 1006 l 860 925 q 846 910 860 910 l 846 910 l 511 910 l 511 15 q 496 0 511 0 l 496 0 z "},"U":{"ha":1013,"x_min":113,"x_max":900,"o":"m 506 -19 l 506 -19 q 363 3 433 -19 q 237 77 293 26 q 147 211 181 128 q 113 415 113 294 l 113 415 l 113 1006 q 128 1019 113 1019 l 128 1019 l 214 1019 q 229 1006 229 1019 l 229 1006 l 229 432 q 266 238 229 313 q 366 129 303 164 q 506 94 429 94 l 506 94 q 645 129 582 94 q 746 238 708 164 q 783 432 783 313 l 783 432 l 783 1006 q 799 1019 783 1019 l 799 1019 l 885 1019 q 900 1006 900 1019 l 900 1006 l 900 415 q 866 211 900 294 q 775 77 832 128 q 648 3 718 26 q 506 -19 578 -19 z "},"V":{"ha":989,"x_min":31,"x_max":960,"o":"m 536 0 l 454 0 q 436 11 442 0 l 436 11 l 38 1003 q 49 1019 31 1019 l 49 1019 l 147 1019 q 165 1008 161 1019 l 165 1008 l 497 149 l 828 1008 q 844 1019 832 1019 l 844 1019 l 942 1019 q 953 1003 960 1019 l 953 1003 l 553 11 q 536 0 549 0 l 536 0 z "},"W":{"ha":1517,"x_min":32,"x_max":1485,"o":"m 488 0 l 407 0 q 390 11 393 0 l 390 11 l 36 1003 q 49 1019 32 1019 l 49 1019 l 149 1019 q 165 1008 161 1019 l 165 1008 l 444 188 l 706 1007 q 721 1019 707 1019 l 721 1019 l 797 1019 q 814 1007 810 1019 l 814 1007 l 1075 188 l 1354 1008 q 1371 1019 1358 1019 l 1371 1019 l 1468 1019 q 1481 1003 1485 1019 l 1481 1003 l 1126 11 q 1110 0 1124 0 l 1110 0 l 1029 0 q 1013 13 1017 0 l 1013 13 l 758 813 l 504 13 q 488 0 500 0 l 488 0 z "},"X":{"ha":908,"x_min":39,"x_max":869,"o":"m 149 0 l 53 0 q 42 6 44 0 q 43 18 39 11 l 43 18 l 382 531 l 69 1001 q 79 1019 61 1019 l 79 1019 l 178 1019 q 194 1010 189 1019 l 194 1010 l 456 608 l 715 1010 q 732 1019 721 1019 l 732 1019 l 829 1019 q 839 1001 849 1019 l 839 1001 l 528 532 l 865 18 q 867 6 869 11 q 856 0 864 0 l 856 0 l 758 0 q 742 10 747 0 l 742 10 l 453 454 l 165 10 q 149 0 161 0 l 149 0 z "},"Y":{"ha":942,"x_min":33,"x_max":910,"o":"m 515 0 l 428 0 q 414 15 414 0 l 414 15 l 414 401 l 38 1001 q 36 1014 33 1008 q 47 1019 39 1019 l 47 1019 l 147 1019 q 164 1010 160 1019 l 164 1010 l 474 504 l 781 1010 q 797 1019 785 1019 l 797 1019 l 894 1019 q 906 1014 903 1019 q 906 1001 910 1008 l 906 1001 l 529 403 l 529 15 q 515 0 529 0 l 515 0 z "},"Z":{"ha":861,"x_min":56,"x_max":797,"o":"m 782 0 l 69 0 q 56 15 56 0 l 56 15 l 56 42 q 61 60 56 53 l 61 60 l 613 910 l 86 910 q 71 925 71 910 l 71 925 l 71 1006 q 86 1019 71 1019 l 86 1019 l 774 1019 q 788 1006 788 1019 l 788 1006 l 788 978 q 782 960 788 967 l 782 960 l 231 110 l 782 110 q 797 96 797 110 l 797 96 l 797 15 q 782 0 797 0 l 782 0 z "},"a":{"ha":865,"x_min":58,"x_max":757,"o":"m 393 -14 l 393 -14 q 216 33 292 -14 q 99 162 140 79 q 58 351 58 244 l 58 351 q 99 540 58 458 q 216 669 140 622 q 393 715 292 715 l 393 715 q 545 678 476 715 q 651 575 614 640 l 651 575 l 656 688 q 671 701 656 701 l 671 701 l 743 701 q 757 688 757 701 l 757 688 l 757 15 q 743 0 757 0 l 743 0 l 671 0 q 656 15 656 0 l 656 15 l 651 128 q 545 24 614 63 q 393 -14 476 -14 z m 414 89 l 414 89 q 540 122 486 89 q 625 214 594 154 q 656 351 656 274 l 656 351 q 625 488 656 429 q 540 580 594 547 q 414 613 486 613 l 414 613 q 288 580 343 613 q 203 488 233 547 q 172 351 172 429 l 172 351 q 203 214 172 274 q 288 122 233 154 q 414 89 343 89 z "},"b":{"ha":865,"x_min":108,"x_max":808,"o":"m 472 -14 l 472 -14 q 322 24 390 -14 q 215 128 253 63 l 215 128 l 210 15 q 194 0 210 0 l 194 0 l 124 0 q 108 15 108 0 l 108 15 l 108 1028 q 124 1042 108 1042 l 124 1042 l 206 1042 q 219 1028 219 1042 l 219 1028 l 219 582 q 325 680 258 644 q 472 715 392 715 l 472 715 q 651 669 575 715 q 767 540 726 622 q 808 351 808 458 l 808 351 q 767 162 808 244 q 651 33 726 79 q 472 -14 575 -14 z m 451 89 l 451 89 q 578 122 524 89 q 663 214 632 154 q 693 351 693 274 l 693 351 q 663 488 693 429 q 578 580 632 547 q 451 613 524 613 l 451 613 q 326 580 381 613 q 240 488 271 547 q 210 351 210 429 l 210 351 q 240 214 210 274 q 326 122 271 154 q 451 89 381 89 z "},"c":{"ha":763,"x_min":58,"x_max":719,"o":"m 407 -14 l 407 -14 q 222 33 300 -14 q 101 162 143 79 q 58 351 58 244 l 58 351 q 101 540 58 458 q 223 669 144 622 q 407 715 301 715 l 407 715 q 592 667 517 715 q 704 524 668 619 l 704 524 q 694 506 708 510 l 694 506 l 625 485 q 607 494 614 481 l 607 494 q 413 613 553 613 l 413 613 q 277 576 331 613 q 198 481 224 540 q 172 351 172 421 l 172 351 q 199 222 172 282 q 278 125 225 161 q 413 89 332 89 l 413 89 q 535 122 486 89 q 611 214 585 154 l 611 214 q 629 222 617 226 l 629 222 l 704 203 q 713 185 719 199 l 713 185 q 594 35 674 83 q 407 -14 515 -14 z "},"d":{"ha":865,"x_min":58,"x_max":757,"o":"m 393 -14 l 393 -14 q 216 33 292 -14 q 99 162 140 79 q 58 351 58 244 l 58 351 q 99 540 58 458 q 216 669 140 622 q 393 715 292 715 l 393 715 q 540 680 474 715 q 646 583 607 644 l 646 583 l 646 1028 q 661 1042 646 1042 l 661 1042 l 743 1042 q 757 1028 757 1042 l 757 1028 l 757 15 q 743 0 757 0 l 743 0 l 671 0 q 656 15 656 0 l 656 15 l 651 128 q 545 24 614 63 q 393 -14 476 -14 z m 414 89 l 414 89 q 540 122 486 89 q 625 214 594 154 q 656 351 656 274 l 656 351 q 625 488 656 429 q 540 580 594 547 q 414 613 486 613 l 414 613 q 288 580 343 613 q 203 488 233 547 q 172 351 172 429 l 172 351 q 203 214 172 274 q 288 122 233 154 q 414 89 343 89 z "},"e":{"ha":767,"x_min":58,"x_max":721,"o":"m 401 -14 l 401 -14 q 219 33 296 -14 q 100 163 142 81 q 58 351 58 246 l 58 351 q 101 539 58 457 q 220 668 143 621 q 401 715 297 715 l 401 715 q 576 667 506 715 q 684 531 647 618 q 719 331 721 444 l 719 331 q 704 315 719 315 l 704 315 l 174 315 q 244 149 183 211 q 401 88 304 88 l 401 88 q 527 118 478 88 q 606 206 576 149 l 606 206 q 625 213 611 217 l 625 213 l 694 188 q 703 169 710 182 l 703 169 q 581 31 658 76 q 401 -14 503 -14 z m 401 615 l 401 615 q 249 558 310 615 q 175 403 189 501 l 175 403 l 601 403 q 542 557 594 499 q 401 615 489 615 z "},"f":{"ha":514,"x_min":22,"x_max":579,"o":"m 247 0 l 165 0 q 150 15 150 0 l 150 15 l 150 601 l 38 601 q 22 615 22 601 l 22 615 l 22 688 q 38 701 22 701 l 38 701 l 150 701 l 150 793 q 210 985 150 919 q 368 1051 271 1051 l 368 1051 q 575 914 511 1051 l 575 914 q 567 894 579 901 l 567 894 l 501 868 q 482 876 489 864 l 482 876 q 438 932 464 915 q 375 949 411 949 l 375 949 q 291 910 321 949 q 261 792 261 871 l 261 792 l 261 701 l 460 701 q 475 688 475 701 l 475 688 l 475 615 q 460 601 475 601 l 460 601 l 261 601 l 261 15 q 247 0 261 0 l 247 0 z "},"g":{"ha":865,"x_min":58,"x_max":757,"o":"m 411 -317 l 411 -317 q 215 -267 297 -317 q 93 -121 132 -217 l 93 -121 q 101 -103 88 -107 l 101 -103 l 168 -78 q 188 -85 179 -72 l 188 -85 q 267 -179 215 -144 q 408 -214 319 -214 l 408 -214 q 524 -194 469 -214 q 612 -127 578 -174 q 646 0 646 -81 l 646 0 l 646 119 q 540 22 607 58 q 393 -14 474 -14 l 393 -14 q 216 33 292 -14 q 99 162 140 79 q 58 351 58 244 l 58 351 q 99 540 58 458 q 216 669 140 622 q 393 715 292 715 l 393 715 q 545 678 476 715 q 651 575 614 640 l 651 575 l 656 688 q 671 701 656 701 l 671 701 l 743 701 q 757 688 757 701 l 757 688 l 757 11 q 710 -174 757 -101 q 586 -282 664 -247 q 411 -317 508 -317 z m 414 89 l 414 89 q 540 122 486 89 q 625 214 594 154 q 656 351 656 274 l 656 351 q 625 488 656 429 q 540 580 594 547 q 414 613 486 613 l 414 613 q 288 580 343 613 q 203 488 233 547 q 172 351 172 429 l 172 351 q 203 214 172 274 q 288 122 233 154 q 414 89 343 89 z "},"h":{"ha":822,"x_min":108,"x_max":718,"o":"m 206 0 l 124 0 q 108 15 108 0 l 108 15 l 108 1028 q 124 1042 108 1042 l 124 1042 l 206 1042 q 219 1028 219 1042 l 219 1028 l 219 583 q 328 682 260 649 q 467 715 397 715 l 467 715 q 652 647 586 715 q 718 456 718 578 l 718 456 l 718 15 q 704 0 718 0 l 704 0 l 622 0 q 607 15 607 0 l 607 15 l 607 410 q 566 562 607 511 q 438 613 525 613 l 438 613 q 338 587 388 613 q 253 508 288 561 q 219 371 219 454 l 219 371 l 219 15 q 206 0 219 0 l 206 0 z "},"i":{"ha":328,"x_min":90,"x_max":238,"o":"m 164 860 l 164 860 q 112 880 133 860 q 90 931 90 900 l 90 931 q 112 982 90 963 q 164 1001 133 1001 l 164 1001 q 217 982 196 1001 q 238 931 238 963 l 238 931 q 217 880 238 900 q 164 860 196 860 z m 206 0 l 124 0 q 108 15 108 0 l 108 15 l 108 688 q 124 701 108 701 l 124 701 l 206 701 q 219 688 219 701 l 219 688 l 219 15 q 206 0 219 0 l 206 0 z "},"j":{"ha":328,"x_min":-182,"x_max":238,"o":"m 164 860 l 164 860 q 112 880 133 860 q 90 931 90 900 l 90 931 q 112 982 90 963 q 164 1001 133 1001 l 164 1001 q 217 982 196 1001 q 238 931 238 963 l 238 931 q 217 880 238 900 q 164 860 196 860 z m 10 -317 l 10 -317 q -104 -285 -57 -317 q -176 -186 -151 -253 l -176 -186 q -168 -167 -182 -174 l -168 -167 l -104 -143 q -85 -151 -92 -139 l -85 -151 q -50 -199 -71 -183 q 7 -214 -29 -214 l 7 -214 q 82 -178 56 -214 q 108 -62 108 -143 l 108 -62 l 108 688 q 124 701 108 701 l 124 701 l 206 701 q 219 688 219 701 l 219 688 l 219 -58 q 163 -253 219 -189 q 10 -317 107 -317 z "},"k":{"ha":758,"x_min":108,"x_max":714,"o":"m 206 0 l 124 0 q 108 15 108 0 l 108 15 l 108 1028 q 124 1042 108 1042 l 124 1042 l 206 1042 q 219 1028 219 1042 l 219 1028 l 219 381 l 543 694 q 561 701 550 701 l 561 701 l 668 701 q 680 696 678 701 q 675 683 682 690 l 675 683 l 422 444 l 710 18 q 711 6 714 11 q 700 0 708 0 l 700 0 l 601 0 q 583 10 590 0 l 583 10 l 340 367 l 219 253 l 219 15 q 206 0 219 0 l 206 0 z "},"l":{"ha":328,"x_min":108,"x_max":219,"o":"m 206 0 l 124 0 q 108 15 108 0 l 108 15 l 108 1028 q 124 1042 108 1042 l 124 1042 l 206 1042 q 219 1028 219 1042 l 219 1028 l 219 15 q 206 0 219 0 l 206 0 z "},"m":{"ha":1285,"x_min":108,"x_max":1181,"o":"m 206 0 l 124 0 q 108 15 108 0 l 108 15 l 108 688 q 124 701 108 701 l 124 701 l 194 701 q 210 688 210 701 l 210 688 l 215 572 q 318 679 251 643 q 457 715 385 715 l 457 715 q 601 675 542 715 q 683 560 660 635 l 683 560 q 790 676 719 638 q 938 715 861 715 l 938 715 q 1115 647 1050 715 q 1181 456 1181 578 l 1181 456 l 1181 15 q 1167 0 1181 0 l 1167 0 l 1085 0 q 1069 15 1069 0 l 1069 15 l 1069 410 q 908 613 1069 613 l 908 613 q 811 587 860 613 q 731 508 763 561 q 700 371 700 454 l 700 371 l 700 15 q 686 0 700 0 l 686 0 l 604 0 q 589 15 589 0 l 589 15 l 589 410 q 428 613 589 613 l 428 613 q 331 587 379 613 q 251 508 282 561 q 219 371 219 454 l 219 371 l 219 15 q 206 0 219 0 l 206 0 z "},"n":{"ha":822,"x_min":108,"x_max":718,"o":"m 206 0 l 124 0 q 108 15 108 0 l 108 15 l 108 688 q 124 701 108 701 l 124 701 l 194 701 q 210 688 210 701 l 210 688 l 215 575 q 324 681 254 646 q 467 715 394 715 l 467 715 q 652 647 586 715 q 718 456 718 578 l 718 456 l 718 15 q 704 0 718 0 l 704 0 l 622 0 q 607 15 607 0 l 607 15 l 607 410 q 566 562 607 511 q 438 613 525 613 l 438 613 q 338 587 388 613 q 253 508 288 561 q 219 371 219 454 l 219 371 l 219 15 q 206 0 219 0 l 206 0 z "},"o":{"ha":828,"x_min":58,"x_max":771,"o":"m 414 -14 l 414 -14 q 226 33 307 -14 q 102 163 146 81 q 58 351 58 246 l 58 351 q 102 539 58 457 q 226 668 146 621 q 414 715 307 715 l 414 715 q 602 668 522 715 q 726 539 682 621 q 771 351 771 457 l 771 351 q 726 163 771 246 q 602 33 682 81 q 414 -14 522 -14 z m 414 89 l 414 89 q 540 122 486 89 q 625 214 594 154 q 656 351 656 274 l 656 351 q 625 488 656 429 q 540 580 594 547 q 414 613 486 613 l 414 613 q 288 580 343 613 q 203 488 233 547 q 172 351 172 429 l 172 351 q 203 214 172 274 q 288 122 233 154 q 414 89 343 89 z "},"p":{"ha":865,"x_min":108,"x_max":808,"o":"m 206 -303 l 124 -303 q 108 -287 108 -303 l 108 -287 l 108 688 q 124 701 108 701 l 124 701 l 194 701 q 210 688 210 701 l 210 688 l 215 575 q 322 678 253 640 q 472 715 390 715 l 472 715 q 651 669 575 715 q 767 540 726 622 q 808 351 808 458 l 808 351 q 767 162 808 244 q 651 33 726 79 q 472 -14 575 -14 l 472 -14 q 325 22 392 -14 q 219 121 258 58 l 219 121 l 219 -287 q 206 -303 219 -303 l 206 -303 z m 451 89 l 451 89 q 578 122 524 89 q 663 214 632 154 q 693 351 693 274 l 693 351 q 663 488 693 429 q 578 580 632 547 q 451 613 524 613 l 451 613 q 326 580 381 613 q 240 488 271 547 q 210 351 210 429 l 210 351 q 240 214 210 274 q 326 122 271 154 q 451 89 381 89 z "},"q":{"ha":865,"x_min":58,"x_max":757,"o":"m 743 -303 l 661 -303 q 646 -287 649 -303 l 646 -287 l 646 119 q 540 22 607 58 q 393 -14 474 -14 l 393 -14 q 216 33 292 -14 q 99 162 140 79 q 58 351 58 244 l 58 351 q 99 540 58 458 q 216 669 140 622 q 393 715 292 715 l 393 715 q 545 678 476 715 q 651 575 614 640 l 651 575 l 656 688 q 671 701 656 701 l 671 701 l 743 701 q 757 688 757 701 l 757 688 l 757 -287 q 743 -303 757 -303 l 743 -303 z m 414 89 l 414 89 q 540 122 486 89 q 625 214 594 154 q 656 351 656 274 l 656 351 q 625 488 656 429 q 540 580 594 547 q 414 613 486 613 l 414 613 q 288 580 343 613 q 203 488 233 547 q 172 351 172 429 l 172 351 q 203 214 172 274 q 288 122 233 154 q 414 89 343 89 z "},"r":{"ha":532,"x_min":108,"x_max":504,"o":"m 206 0 l 124 0 q 108 15 108 0 l 108 15 l 108 688 q 124 701 108 701 l 124 701 l 194 701 q 210 688 210 701 l 210 688 l 215 567 q 316 674 253 636 q 454 711 379 711 l 454 711 q 476 711 467 711 q 492 708 485 711 l 492 708 q 504 693 504 707 l 504 693 l 504 613 q 489 599 504 596 l 489 599 q 468 601 479 600 q 442 603 457 603 l 442 603 q 333 574 385 603 q 251 494 282 544 q 219 381 219 444 l 219 381 l 219 15 q 206 0 219 0 l 206 0 z "},"s":{"ha":657,"x_min":46,"x_max":594,"o":"m 343 -14 l 343 -14 q 158 33 233 -14 q 50 172 83 79 l 50 172 q 60 190 46 186 l 60 190 l 132 210 q 150 201 146 214 l 150 201 q 224 114 178 140 q 339 88 271 88 l 339 88 q 440 111 400 88 q 479 183 479 135 l 479 183 q 447 249 479 224 q 342 293 414 274 l 342 293 l 300 304 q 133 390 185 336 q 82 521 82 444 l 82 521 q 149 660 82 606 q 326 715 217 715 l 326 715 q 485 674 417 715 q 583 546 553 632 l 583 546 q 575 528 590 533 l 575 528 l 503 506 q 483 514 490 500 l 483 514 q 325 615 438 615 l 325 615 q 232 590 268 615 q 196 521 196 565 l 196 521 q 228 456 196 481 q 340 410 261 431 l 340 410 l 379 400 q 545 317 496 369 q 594 186 594 265 l 594 186 q 524 41 594 96 q 343 -14 454 -14 z "},"t":{"ha":551,"x_min":11,"x_max":547,"o":"m 351 -14 l 351 -14 q 203 48 257 -14 q 149 243 149 110 l 149 243 l 149 601 l 25 601 q 11 615 11 601 l 11 615 l 11 688 q 25 701 11 701 l 25 701 l 149 701 l 149 917 q 163 931 149 931 l 163 931 l 244 931 q 260 917 260 931 l 260 917 l 260 701 l 454 701 q 468 688 468 701 l 468 688 l 468 615 q 454 601 468 601 l 454 601 l 260 601 l 260 240 q 285 125 260 161 q 361 89 310 89 l 361 89 q 451 153 421 89 l 451 153 q 471 160 458 167 l 471 160 l 533 133 q 539 110 547 126 l 539 110 q 457 15 506 43 q 351 -14 408 -14 z "},"u":{"ha":818,"x_min":104,"x_max":710,"o":"m 354 -14 l 354 -14 q 170 56 236 -14 q 104 246 104 125 l 104 246 l 104 688 q 118 701 104 701 l 118 701 l 200 701 q 215 688 215 701 l 215 688 l 215 293 q 256 140 215 192 q 383 89 297 89 l 383 89 q 483 115 433 89 q 565 194 532 140 q 599 331 599 247 l 599 331 l 599 688 q 614 701 599 701 l 614 701 l 696 701 q 710 688 710 701 l 710 688 l 710 15 q 696 0 710 0 l 696 0 l 624 0 q 608 15 608 0 l 608 15 l 604 128 q 496 22 565 57 q 354 -14 426 -14 z "},"v":{"ha":751,"x_min":29,"x_max":722,"o":"m 401 0 l 350 0 q 333 11 338 0 l 333 11 l 38 685 q 49 701 29 701 l 49 701 l 146 701 q 164 690 158 701 l 164 690 l 379 164 l 594 690 q 613 701 600 701 l 613 701 l 704 701 q 715 685 722 701 l 715 685 l 419 11 q 401 0 413 0 l 401 0 z "},"w":{"ha":1122,"x_min":32,"x_max":1092,"o":"m 346 0 l 294 0 q 278 11 282 0 l 278 11 l 36 685 q 49 701 32 701 l 49 701 l 147 701 q 164 690 160 701 l 164 690 l 326 193 l 524 690 q 540 701 528 701 l 540 701 l 592 701 q 608 690 603 701 l 608 690 l 800 199 l 967 690 q 983 701 971 701 l 983 701 l 1074 701 q 1086 685 1092 701 l 1086 685 l 844 11 q 828 0 840 0 l 828 0 l 776 0 q 760 11 764 0 l 760 11 l 564 514 l 363 11 q 346 0 358 0 l 346 0 z "},"x":{"ha":719,"x_min":36,"x_max":683,"o":"m 142 0 l 50 0 q 39 6 42 0 q 42 18 36 11 l 42 18 l 292 364 l 60 683 q 57 696 54 690 q 69 701 60 701 l 69 701 l 165 701 q 183 693 178 701 l 183 693 l 363 443 l 542 693 q 560 701 549 701 l 560 701 l 650 701 q 660 683 671 701 l 660 683 l 428 363 l 678 18 q 681 6 683 11 q 669 0 678 0 l 669 0 l 572 0 q 554 10 561 0 l 554 10 l 357 286 l 160 10 q 142 0 151 0 l 142 0 z "},"y":{"ha":750,"x_min":32,"x_max":719,"o":"m 300 -303 l 214 -303 q 203 -286 199 -303 l 203 -286 l 328 24 l 38 685 q 49 701 32 701 l 49 701 l 146 701 q 164 690 158 701 l 164 690 l 385 160 l 594 690 q 611 701 600 701 l 611 701 l 701 701 q 713 685 719 701 l 713 685 l 318 -292 q 300 -303 313 -303 l 300 -303 z "},"z":{"ha":700,"x_min":74,"x_max":626,"o":"m 611 0 l 88 0 q 74 15 74 0 l 74 15 l 74 38 q 79 56 74 49 l 79 56 l 451 601 l 99 601 q 85 617 85 601 l 85 617 l 85 688 q 99 701 85 701 l 99 701 l 606 701 q 619 688 619 701 l 619 688 l 619 665 q 614 647 619 654 l 614 647 l 242 100 l 611 100 q 626 86 626 100 l 626 86 l 626 15 q 611 0 626 0 l 611 0 z "},"ﬁ":{"ha":818,"x_min":22,"x_max":728,"o":"m 247 0 l 165 0 q 150 15 150 0 l 150 15 l 150 601 l 38 601 q 22 615 22 601 l 22 615 l 22 688 q 38 701 22 701 l 38 701 l 150 701 l 150 793 q 212 985 150 919 q 375 1051 274 1051 l 375 1051 q 539 988 474 1051 l 539 988 q 539 967 549 976 l 539 967 l 503 913 q 482 910 492 900 l 482 910 q 382 949 438 949 l 382 949 q 261 792 261 949 l 261 792 l 261 701 l 694 701 q 708 688 708 701 l 708 688 l 708 15 q 694 0 708 0 l 694 0 l 613 0 q 597 15 597 0 l 597 15 l 597 601 l 261 601 l 261 15 q 247 0 261 0 l 247 0 z m 653 849 l 653 849 q 601 869 622 849 q 579 921 579 889 l 579 921 q 601 973 579 953 q 653 993 622 993 l 653 993 q 706 973 685 993 q 728 921 728 953 l 728 921 q 706 869 728 889 q 653 849 685 849 z "},"ﬂ":{"ha":817,"x_min":22,"x_max":708,"o":"m 247 0 l 165 0 q 150 15 150 0 l 150 15 l 150 601 l 38 601 q 22 615 22 601 l 22 615 l 22 688 q 38 701 22 701 l 38 701 l 150 701 l 150 793 q 212 985 150 919 q 375 1051 274 1051 l 375 1051 q 539 988 474 1051 l 539 988 q 539 967 549 976 l 539 967 l 503 913 q 482 910 492 900 l 482 910 q 382 949 438 949 l 382 949 q 261 792 261 949 l 261 792 l 261 701 l 460 701 q 475 688 475 701 l 475 688 l 475 615 q 460 601 475 601 l 460 601 l 261 601 l 261 15 q 247 0 261 0 l 247 0 z m 694 0 l 613 0 q 597 15 597 0 l 597 15 l 597 1028 q 613 1042 597 1042 l 613 1042 l 694 1042 q 708 1028 708 1042 l 708 1028 l 708 15 q 694 0 708 0 l 694 0 z "},"ﬃ":{"ha":1269,"x_min":22,"x_max":1179,"o":"m 251 0 l 169 0 q 154 15 154 0 l 154 15 l 154 601 l 38 601 q 22 615 22 601 l 22 615 l 22 688 q 38 701 22 701 l 38 701 l 154 701 l 154 793 q 219 985 154 919 q 386 1051 285 1051 l 386 1051 q 558 988 483 1051 l 558 988 q 560 967 567 979 l 560 967 l 532 910 q 511 906 525 896 l 511 906 q 393 949 453 949 l 393 949 q 265 792 265 949 l 265 792 l 265 701 l 601 701 l 601 793 q 663 985 601 919 q 826 1051 725 1051 l 826 1051 q 990 988 925 1051 l 990 988 q 990 967 1000 976 l 990 967 l 954 913 q 933 910 943 900 l 933 910 q 833 949 889 949 l 833 949 q 713 792 713 949 l 713 792 l 713 701 l 1146 701 q 1160 688 1160 701 l 1160 688 l 1160 15 q 1146 0 1160 0 l 1146 0 l 1064 0 q 1049 15 1049 0 l 1049 15 l 1049 601 l 713 601 l 713 15 q 699 0 713 0 l 699 0 l 617 0 q 601 15 601 0 l 601 15 l 601 601 l 265 601 l 265 15 q 251 0 265 0 l 251 0 z m 1104 849 l 1104 849 q 1052 869 1074 849 q 1031 921 1031 889 l 1031 921 q 1052 973 1031 953 q 1104 993 1074 993 l 1104 993 q 1158 973 1136 993 q 1179 921 1179 953 l 1179 921 q 1158 869 1179 889 q 1104 849 1136 849 z "},"ﬄ":{"ha":1268,"x_min":22,"x_max":1160,"o":"m 251 0 l 169 0 q 154 15 154 0 l 154 15 l 154 601 l 38 601 q 22 615 22 601 l 22 615 l 22 688 q 38 701 22 701 l 38 701 l 154 701 l 154 793 q 219 985 154 919 q 386 1051 283 1051 l 386 1051 q 558 988 483 1051 l 558 988 q 560 967 567 979 l 560 967 l 532 910 q 511 906 525 896 l 511 906 q 393 949 453 949 l 393 949 q 265 792 265 949 l 265 792 l 265 701 l 601 701 l 601 793 q 663 985 601 919 q 826 1051 725 1051 l 826 1051 q 990 988 925 1051 l 990 988 q 990 967 1000 976 l 990 967 l 954 913 q 933 910 943 900 l 933 910 q 833 949 889 949 l 833 949 q 713 792 713 949 l 713 792 l 713 701 l 911 701 q 926 688 926 701 l 926 688 l 926 615 q 911 601 926 601 l 911 601 l 713 601 l 713 15 q 699 0 713 0 l 699 0 l 617 0 q 601 15 601 0 l 601 15 l 601 601 l 265 601 l 265 15 q 251 0 265 0 l 251 0 z m 1146 0 l 1064 0 q 1049 15 1049 0 l 1049 15 l 1049 1028 q 1064 1042 1049 1042 l 1064 1042 l 1146 1042 q 1160 1028 1160 1042 l 1160 1028 l 1160 15 q 1146 0 1160 0 l 1146 0 z "},"ﬀ":{"ha":965,"x_min":22,"x_max":1031,"o":"m 251 0 l 169 0 q 154 15 154 0 l 154 15 l 154 601 l 38 601 q 22 615 22 601 l 22 615 l 22 688 q 38 701 22 701 l 38 701 l 154 701 l 154 793 q 219 985 154 919 q 386 1051 283 1051 l 386 1051 q 558 988 483 1051 l 558 988 q 560 967 567 979 l 560 967 l 532 910 q 511 906 525 896 l 511 906 q 393 949 453 949 l 393 949 q 265 792 265 949 l 265 792 l 265 701 l 601 701 l 601 793 q 662 985 601 919 q 819 1051 722 1051 l 819 1051 q 1026 914 963 1051 l 1026 914 q 1018 894 1031 901 l 1018 894 l 953 868 q 933 876 940 864 l 933 876 q 889 932 915 915 q 826 949 863 949 l 826 949 q 713 792 713 949 l 713 792 l 713 701 l 911 701 q 926 688 926 701 l 926 688 l 926 615 q 911 601 926 601 l 911 601 l 713 601 l 713 15 q 699 0 713 0 l 699 0 l 617 0 q 601 15 601 0 l 601 15 l 601 601 l 265 601 l 265 15 q 251 0 265 0 l 251 0 z "},"©":{"ha":1199,"x_min":76,"x_max":1122,"o":"m 600 -19 l 600 -19 q 390 19 486 -19 q 224 128 294 57 q 115 296 154 199 q 76 510 76 393 l 76 510 q 115 724 76 626 q 224 892 154 821 q 390 1001 294 963 q 600 1039 486 1039 l 600 1039 q 809 1001 714 1039 q 974 892 904 963 q 1083 724 1044 821 q 1122 510 1122 626 l 1122 510 q 1083 296 1122 393 q 974 128 1044 199 q 809 19 904 57 q 600 -19 714 -19 z m 600 51 l 600 51 q 839 113 739 51 q 994 278 939 174 q 1049 510 1049 382 l 1049 510 q 994 743 1049 639 q 839 908 939 847 q 600 968 739 968 l 600 968 q 362 907 463 968 q 206 742 261 846 q 151 510 151 639 l 151 510 q 206 278 151 382 q 362 113 261 174 q 600 51 463 51 z m 603 224 l 603 224 q 458 260 519 224 q 364 362 397 297 q 331 510 331 426 l 331 510 q 365 658 331 594 q 460 759 399 722 q 601 796 521 796 l 601 796 q 745 759 683 796 q 835 649 807 722 l 835 649 q 825 631 842 635 l 825 631 l 772 617 q 754 626 760 614 l 754 626 q 606 714 711 714 l 606 714 q 503 685 544 714 q 442 610 463 657 q 422 510 422 564 l 422 510 q 442 409 422 456 q 503 335 463 363 q 607 307 544 307 l 607 307 q 699 331 660 307 q 758 400 739 354 l 758 400 q 776 410 763 414 l 776 410 l 832 393 q 842 375 846 389 l 842 375 q 748 262 811 300 q 603 224 685 224 z "},"®":{"ha":871,"x_min":76,"x_max":794,"o":"m 436 325 l 436 325 q 251 371 332 325 q 123 498 169 417 q 76 686 76 579 l 76 686 q 123 875 76 793 q 251 1003 169 957 q 436 1049 332 1049 l 436 1049 q 622 1003 542 1049 q 749 875 703 957 q 794 686 794 793 l 794 686 q 749 498 794 579 q 622 371 703 417 q 436 325 542 325 z m 436 383 l 436 383 q 597 424 531 383 q 699 534 664 465 q 735 686 735 603 l 735 686 q 699 840 735 771 q 597 949 664 908 q 436 990 531 990 l 436 990 q 276 949 343 990 q 173 840 208 908 q 138 686 138 771 l 138 686 q 173 534 138 603 q 276 424 208 465 q 436 383 343 383 z m 364 528 l 332 528 q 321 539 321 528 l 321 539 l 321 858 q 332 869 321 869 l 332 869 l 433 869 q 535 839 506 869 q 565 763 565 808 l 565 763 q 549 701 565 728 q 497 663 533 674 l 497 663 l 569 542 q 563 528 576 528 l 563 528 l 525 528 q 513 535 517 528 l 513 535 l 443 653 l 432 653 l 375 653 l 375 539 q 364 528 375 528 l 364 528 z m 432 819 l 432 819 l 375 819 l 375 703 l 432 703 q 492 718 474 703 q 510 763 510 733 l 510 763 q 492 805 510 790 q 432 819 474 819 z "},"™":{"ha":1313,"x_min":32,"x_max":1251,"o":"m 713 458 l 638 458 q 624 474 624 458 l 624 474 l 624 1006 q 638 1019 624 1019 l 638 1019 l 718 1019 q 735 1010 729 1019 l 735 1010 l 940 671 l 1143 1010 q 1160 1019 1147 1019 l 1160 1019 l 1238 1019 q 1251 1006 1251 1019 l 1251 1006 l 1251 474 q 1238 458 1251 458 l 1238 458 l 1163 458 q 1147 474 1147 458 l 1147 474 l 1147 850 l 981 575 q 964 565 976 565 l 964 565 l 907 565 q 890 575 896 565 l 890 575 l 728 842 l 728 474 q 713 458 728 458 l 713 458 z m 329 458 l 247 458 q 233 474 233 458 l 233 474 l 233 919 l 47 919 q 32 933 32 919 l 32 933 l 32 1006 q 47 1019 32 1019 l 47 1019 l 531 1019 q 544 1006 544 1019 l 544 1006 l 544 933 q 531 919 544 919 l 531 919 l 344 919 l 344 474 q 329 458 344 458 l 329 458 z "},"📷":{"ha":1389,"x_min":250,"x_max":1138,"o":"m 1079 81 l 307 81 q 267 98 285 81 q 250 139 250 115 l 250 139 l 250 775 q 267 817 250 800 q 307 835 285 835 l 307 835 l 479 835 l 524 899 q 574 924 540 924 l 574 924 l 813 924 q 858 900 842 924 l 858 900 l 908 835 l 1079 835 q 1120 817 1103 835 q 1138 775 1138 800 l 1138 775 l 1138 139 q 1120 98 1138 115 q 1079 81 1103 81 l 1079 81 z m 693 267 l 693 267 q 790 292 746 267 q 859 361 833 318 q 885 457 885 404 l 885 457 q 859 555 885 511 q 790 624 833 599 q 693 650 746 650 l 693 650 q 598 624 642 650 q 528 555 554 599 q 503 457 503 511 l 503 457 q 528 361 503 404 q 598 292 554 318 q 693 267 642 267 z m 693 317 l 693 317 q 594 358 636 317 q 551 457 551 400 l 551 457 q 594 558 551 517 q 693 599 636 599 l 693 599 q 793 558 751 599 q 835 457 835 517 l 835 457 q 793 358 835 400 q 693 317 751 317 z "},"💬":{"ha":1389,"x_min":260,"x_max":1128,"o":"m 503 61 l 485 22 l 453 54 q 370 155 415 92 q 292 300 325 218 q 260 475 260 382 l 260 475 q 314 709 260 610 q 467 863 368 808 q 700 918 565 918 l 700 918 q 926 872 831 918 q 1075 740 1022 825 q 1128 539 1128 656 l 1128 539 q 1099 390 1128 460 q 1017 266 1069 319 q 897 183 965 213 q 749 153 828 153 l 749 153 l 632 153 q 550 124 582 153 q 503 61 518 96 l 503 61 z m 513 467 l 513 467 q 545 481 532 467 q 558 513 558 494 l 558 513 q 545 547 558 533 q 513 560 532 560 l 513 560 q 481 547 494 560 q 468 513 468 533 l 468 513 q 481 481 468 494 q 513 467 494 467 z m 690 467 l 690 467 q 722 481 708 467 q 736 513 736 494 l 736 513 q 722 547 736 533 q 690 560 708 560 l 690 560 q 659 547 672 560 q 646 513 646 533 l 646 513 q 659 481 646 494 q 690 467 672 467 z m 868 467 l 868 467 q 899 481 886 467 q 913 513 913 494 l 913 513 q 899 547 913 533 q 868 560 886 560 l 868 560 q 835 547 847 560 q 822 513 822 533 l 822 513 q 835 481 822 494 q 868 467 847 467 z "},"✉":{"ha":1389,"x_min":249,"x_max":1138,"o":"m 1031 106 l 358 106 q 281 137 313 106 q 249 214 249 168 l 249 214 l 249 743 q 281 822 249 789 q 358 854 313 854 l 358 854 l 1031 854 q 1106 822 1075 854 q 1138 743 1138 789 l 1138 743 l 1138 214 q 1106 138 1138 169 q 1031 106 1075 106 l 1031 106 z m 367 694 l 693 419 l 1019 694 q 1031 717 1031 703 l 1031 717 q 1025 733 1031 724 q 1006 742 1019 742 l 1006 742 q 988 735 996 742 l 988 735 l 693 486 l 399 735 q 381 742 389 742 l 381 742 q 361 733 367 742 q 356 717 356 724 l 356 717 q 367 694 356 703 l 367 694 z "},"🕓":{"ha":1389,"x_min":228,"x_max":1160,"o":"m 693 13 l 693 13 q 513 49 597 13 q 365 149 429 85 q 264 297 300 213 q 228 476 228 381 l 228 476 q 264 656 228 572 q 365 804 300 740 q 513 904 429 868 q 693 940 597 940 l 693 940 q 874 904 789 940 q 1023 803 958 868 q 1124 655 1088 739 q 1160 475 1160 571 l 1160 475 q 1124 296 1160 379 q 1023 149 1088 213 q 874 49 958 85 q 693 13 789 13 z m 668 461 l 842 361 l 865 406 l 718 490 l 718 731 l 668 731 l 668 461 z "},"🎵":{"ha":1389,"x_min":275,"x_max":1025,"o":"m 404 49 l 404 49 q 314 88 353 49 q 275 179 275 126 l 275 179 q 313 274 275 235 q 404 314 351 314 l 404 314 q 472 296 436 314 l 472 296 l 472 744 q 485 781 472 764 q 517 803 499 797 l 517 803 l 951 918 q 1001 907 978 925 q 1025 863 1025 889 l 1025 863 l 1025 313 q 986 217 1025 257 q 890 178 947 178 l 890 178 q 799 215 839 178 q 760 313 760 253 l 760 313 q 799 404 760 365 q 890 443 839 443 l 890 443 q 960 425 925 443 l 960 425 l 960 724 l 540 611 l 540 179 q 500 88 540 128 q 404 49 460 49 z "},"📞":{"ha":1389,"x_min":236,"x_max":1154,"o":"m 940 19 l 940 19 q 720 83 839 19 q 483 265 601 147 l 483 265 q 351 426 407 343 q 266 590 296 510 q 236 732 236 669 l 236 732 q 272 839 236 801 l 272 839 l 342 910 q 375 931 357 925 q 411 938 393 938 l 411 938 q 454 929 433 938 q 490 903 475 921 l 490 903 l 597 781 q 611 744 611 764 l 611 744 q 592 704 611 724 l 592 704 l 499 608 q 519 559 500 592 q 569 489 539 526 q 633 417 599 451 l 633 417 q 706 352 668 382 q 775 303 743 322 q 824 283 807 285 l 824 283 l 918 378 q 961 396 936 396 l 961 396 q 1000 381 982 396 l 1000 381 l 1121 272 q 1154 197 1154 243 l 1154 197 q 1126 128 1154 156 l 1126 128 l 1057 57 q 1008 29 1039 39 q 940 19 976 19 z "},"🔍":{"ha":1389,"x_min":240,"x_max":1149,"o":"m 1149 88 l 1079 18 l 825 271 q 606 196 732 196 l 606 196 q 465 224 531 196 q 348 303 399 253 q 269 420 297 354 q 240 561 240 486 l 240 561 q 269 703 240 636 q 347 819 297 769 q 464 898 397 869 q 606 926 531 926 l 606 926 q 790 877 707 926 q 923 745 874 828 q 972 561 972 663 l 972 561 q 896 342 972 438 l 896 342 l 1149 88 z m 606 296 l 606 296 q 739 331 679 296 q 834 427 799 367 q 869 561 869 488 l 869 561 q 834 694 869 635 q 739 790 799 754 q 606 825 679 825 l 606 825 q 473 790 533 825 q 377 694 413 754 q 342 561 342 635 l 342 561 q 377 428 342 489 q 473 332 413 368 q 606 296 533 296 z "},"🛍":{"ha":1389,"x_min":314,"x_max":1074,"o":"m 1074 249 l 314 249 l 314 760 q 331 801 314 783 q 371 818 349 818 l 371 818 l 513 818 q 537 910 513 869 q 602 976 561 951 q 693 1000 643 1000 l 693 1000 q 785 976 744 1000 q 851 910 826 951 q 875 818 875 869 l 875 818 l 1015 818 q 1056 801 1039 818 q 1074 760 1074 783 l 1074 760 l 1074 249 z m 578 818 l 578 818 l 810 818 q 776 901 810 867 q 693 935 742 935 l 693 935 q 612 901 646 935 q 578 818 578 867 z m 1015 24 l 371 24 q 331 41 349 24 q 314 83 314 58 l 314 83 l 314 200 l 1074 200 l 1074 83 q 1056 41 1074 58 q 1015 24 1039 24 l 1015 24 z "},"☻":{"ha":1389,"x_min":228,"x_max":1160,"o":"m 693 13 l 693 13 q 513 49 597 13 q 365 149 429 85 q 264 297 300 213 q 228 476 228 381 l 228 476 q 264 656 228 572 q 365 804 300 740 q 513 904 429 868 q 693 940 597 940 l 693 940 q 874 904 789 940 q 1023 803 958 868 q 1124 655 1088 739 q 1160 475 1160 571 l 1160 475 q 1124 296 1160 379 q 1023 149 1088 213 q 874 49 958 85 q 693 13 789 13 z m 550 517 l 550 517 q 584 532 569 517 q 599 568 599 547 l 599 568 q 584 603 599 588 q 550 618 569 618 l 550 618 q 513 603 528 618 q 497 568 497 588 l 497 568 q 513 532 497 547 q 550 517 528 517 z m 840 517 l 840 517 q 877 532 863 517 q 892 568 892 547 l 892 568 q 877 603 892 588 q 840 618 863 618 l 840 618 q 806 603 821 618 q 792 568 792 588 l 792 568 q 806 532 792 547 q 840 517 821 517 z m 694 272 l 694 272 q 801 299 751 272 q 878 376 850 326 l 878 376 q 868 410 890 399 l 868 410 q 848 412 860 414 q 832 401 836 410 l 832 401 q 776 342 814 364 q 694 321 738 321 l 694 321 q 616 343 651 321 q 557 401 581 365 l 557 401 q 540 412 551 410 q 521 410 529 414 l 521 410 q 513 376 499 397 l 513 376 q 592 301 544 329 q 694 272 639 272 z "},"🔈":{"ha":1389,"x_min":199,"x_max":1189,"o":"m 785 21 l 785 21 q 760 29 771 21 l 760 29 l 514 268 l 232 268 q 208 277 218 268 q 199 299 199 286 l 199 299 l 199 658 q 208 681 199 672 q 232 690 218 690 l 232 690 l 514 690 l 760 929 q 786 940 771 940 l 786 940 q 808 930 799 940 q 817 904 817 919 l 817 904 l 817 51 q 785 21 817 21 z m 1022 169 l 1022 169 l 988 226 q 1088 333 1051 267 q 1125 475 1125 399 l 1125 475 q 988 722 1125 626 l 988 722 l 1022 778 q 1144 648 1099 731 q 1189 475 1189 565 l 1189 475 q 1145 301 1189 382 q 1022 169 1101 221 z m 943 297 l 943 297 l 907 353 q 974 481 974 400 l 974 481 q 907 594 974 549 l 907 594 l 943 650 q 1039 474 1039 582 l 1039 474 q 1013 375 1039 422 q 943 297 988 328 z "},"👤":{"ha":1389,"x_min":261,"x_max":1129,"o":"m 1129 0 l 261 0 l 261 126 q 278 192 261 161 q 324 242 294 224 l 324 242 l 565 392 q 574 400 568 394 q 581 422 581 406 l 581 422 q 576 449 581 438 q 567 471 571 461 l 567 471 q 553 497 561 482 q 535 531 544 513 l 535 531 q 525 550 529 540 q 514 569 521 560 l 514 569 q 480 610 490 585 q 469 658 469 636 l 469 658 q 474 686 469 674 q 482 707 478 699 l 482 707 q 545 874 486 810 q 696 938 604 938 l 696 938 q 847 874 788 938 q 908 707 906 810 l 908 707 q 917 686 913 699 q 921 658 921 674 l 921 658 q 910 610 921 636 q 876 569 900 585 l 876 569 q 866 550 871 560 q 856 531 861 540 l 856 531 q 838 497 846 513 q 824 471 831 482 l 824 471 q 815 447 819 461 q 810 422 810 433 l 810 422 q 816 400 810 406 q 825 392 822 394 l 825 392 l 1067 243 q 1113 193 1096 225 q 1129 126 1129 161 l 1129 126 l 1129 0 z "},"":{"ha":1389,"x_min":204,"x_max":1183,"o":"m 963 0 l 425 0 q 314 30 364 0 q 234 110 264 60 q 204 221 204 160 l 204 221 l 204 758 q 234 869 204 819 q 314 949 264 919 q 425 979 364 979 l 425 979 l 963 979 q 1074 949 1024 979 q 1153 869 1124 919 q 1183 758 1183 819 l 1183 758 l 1183 221 q 1153 110 1183 160 q 1074 30 1124 60 q 963 0 1024 0 l 963 0 z m 676 178 l 676 178 q 685 180 681 178 q 694 183 689 182 l 694 183 q 738 208 707 189 q 809 253 769 226 q 887 312 849 281 q 951 372 925 343 l 951 372 q 1021 535 1021 453 l 1021 535 q 977 669 1021 608 q 859 765 933 729 q 694 801 785 801 l 694 801 q 531 765 606 801 q 413 669 457 729 q 368 535 368 608 l 368 535 q 403 415 368 469 q 501 322 439 360 q 640 274 563 285 l 640 274 q 658 269 649 272 q 669 258 667 265 l 669 258 q 672 244 672 253 q 669 228 671 235 l 669 228 q 664 192 664 194 l 664 192 q 666 183 664 188 q 676 178 668 178 z m 572 451 l 481 451 q 475 458 475 451 l 475 458 l 475 600 q 481 607 475 607 l 481 607 l 504 607 q 510 600 510 607 l 510 600 l 510 488 l 572 488 q 578 481 578 488 l 578 481 l 578 458 q 572 451 578 451 l 572 451 z m 628 451 l 604 451 q 597 458 597 451 l 597 458 l 597 600 q 604 607 597 607 l 604 607 l 628 607 q 635 600 635 607 l 635 600 l 635 458 q 628 451 635 451 l 628 451 z m 686 451 l 663 451 q 657 458 657 451 l 657 458 l 657 600 q 663 607 657 607 l 663 607 l 685 607 q 692 601 689 607 l 692 601 l 756 515 l 756 600 q 761 607 756 607 l 761 607 l 786 607 q 792 600 792 607 l 792 600 l 792 458 q 786 451 792 451 l 786 451 l 763 451 q 756 456 758 451 l 756 456 l 692 542 l 692 458 q 686 451 692 451 l 686 451 z m 911 451 l 821 451 q 814 458 814 451 l 814 458 l 814 600 q 821 607 814 607 l 821 607 l 911 607 q 918 600 918 607 l 918 600 l 918 578 q 911 569 918 569 l 911 569 l 850 569 l 850 546 l 911 546 q 918 540 918 546 l 918 540 l 918 517 q 911 511 918 511 l 911 511 l 850 511 l 850 488 l 911 488 q 918 481 918 488 l 918 481 l 918 458 q 911 451 918 451 l 911 451 z "},"":{"ha":2022,"x_min":225,"x_max":1797,"o":"m 974 204 l 892 204 q 869 225 869 204 l 869 225 l 869 732 q 892 753 869 753 l 892 753 l 971 753 q 996 740 988 753 l 996 740 l 1222 431 l 1222 732 q 1243 753 1222 753 l 1243 753 l 1328 753 q 1343 747 1336 753 q 1350 732 1350 742 l 1350 732 l 1350 225 q 1343 210 1350 215 q 1328 204 1336 204 l 1328 204 l 1246 204 q 1221 217 1229 204 l 1221 217 l 994 526 l 994 225 q 974 204 994 204 l 974 204 z m 572 204 l 247 204 q 232 210 239 204 q 225 225 225 215 l 225 225 l 225 732 q 232 747 225 742 q 247 753 239 753 l 247 753 l 331 753 q 353 732 353 753 l 353 732 l 353 331 l 572 331 q 594 308 594 331 l 594 308 l 594 225 q 572 204 594 204 l 572 204 z m 768 204 l 686 204 q 665 225 665 204 l 665 225 l 665 732 q 686 753 665 753 l 686 753 l 768 753 q 790 732 790 753 l 790 732 l 790 225 q 768 204 790 204 l 768 204 z m 1775 204 l 1450 204 q 1435 210 1442 204 q 1428 225 1428 215 l 1428 225 l 1428 732 q 1435 747 1428 742 q 1450 753 1442 753 l 1450 753 l 1775 753 q 1790 747 1783 753 q 1797 732 1797 742 l 1797 732 l 1797 649 q 1790 633 1797 639 q 1775 628 1783 628 l 1775 628 l 1553 628 l 1553 542 l 1775 542 q 1790 535 1783 542 q 1797 521 1797 529 l 1797 521 l 1797 436 q 1790 422 1797 428 q 1775 415 1783 415 l 1775 415 l 1553 415 l 1553 331 l 1775 331 q 1790 324 1783 331 q 1797 308 1797 318 l 1797 308 l 1797 225 q 1790 210 1797 215 q 1775 204 1783 204 l 1775 204 z "},"":{"ha":1553,"x_min":69,"x_max":1483,"o":"m 246 308 l 246 308 q 119 358 169 308 q 69 486 69 407 l 69 486 q 119 613 69 564 q 246 663 169 663 l 246 663 q 374 613 324 663 q 424 486 424 564 l 424 486 q 374 358 424 407 q 246 308 324 308 z m 779 329 l 575 329 q 569 335 569 329 l 569 335 l 569 636 q 575 643 569 643 l 575 643 l 622 643 q 628 636 628 643 l 628 636 l 628 385 l 779 385 q 783 379 783 385 l 783 379 l 783 335 q 779 329 783 329 l 779 329 z m 874 329 l 828 329 q 822 335 822 329 l 822 335 l 822 636 q 828 643 822 643 l 828 643 l 874 643 q 879 636 879 643 l 879 636 l 879 335 q 874 329 879 329 l 874 329 z m 996 329 l 951 329 q 946 335 946 329 l 946 335 l 946 636 q 951 643 946 643 l 951 643 l 1000 643 q 1007 639 1004 643 l 1007 639 l 1147 424 l 1147 636 q 1153 643 1147 643 l 1153 643 l 1196 643 q 1201 636 1201 643 l 1201 636 l 1201 335 q 1196 329 1201 329 l 1196 329 l 1149 329 q 1142 333 1144 329 l 1142 333 l 1001 550 l 1001 335 q 996 329 1001 329 l 996 329 z m 1476 329 l 1274 329 q 1268 335 1268 329 l 1268 335 l 1268 636 q 1274 643 1268 643 l 1274 643 l 1472 643 q 1478 636 1478 643 l 1478 636 l 1478 593 q 1472 588 1478 588 l 1472 588 l 1325 588 l 1325 517 l 1458 517 q 1463 511 1463 517 l 1463 511 l 1463 468 q 1458 464 1463 464 l 1458 464 l 1325 464 l 1325 383 l 1476 383 q 1483 378 1483 383 l 1483 378 l 1483 335 q 1476 329 1483 329 l 1476 329 z m 246 340 l 246 340 q 350 381 311 340 q 389 486 389 422 l 389 486 q 350 590 389 549 q 246 631 311 631 l 246 631 q 142 590 182 631 q 103 486 103 549 l 103 486 q 142 381 103 422 q 246 340 182 340 z m 247 390 l 247 390 q 179 417 204 390 q 154 486 154 443 l 154 486 q 179 554 154 528 q 246 581 204 581 l 246 581 q 297 569 275 581 q 329 529 319 557 l 329 529 q 325 522 331 525 l 325 522 l 296 514 q 288 518 292 513 l 288 518 q 249 540 272 540 l 249 540 q 213 524 225 540 q 200 486 200 508 l 200 486 q 213 447 200 464 q 250 431 225 431 l 250 431 q 289 454 281 431 l 289 454 q 296 458 290 460 l 296 458 l 328 450 q 332 443 333 449 l 332 443 q 299 403 322 417 q 247 390 275 390 z "}}}
